<?xml version="1.0" encoding="utf-8"?>
<!-- Generator: Adobe Illustrator 22.0.1, SVG Export Plug-In . SVG Version: 6.00 Build 0)  -->
<svg version="1.1" id="Layer_1" xmlns="http://www.w3.org/2000/svg" xmlns:xlink="http://www.w3.org/1999/xlink" x="0px" y="0px"
	 viewBox="0 0 79 46" style="enable-background:new 0 0 79 46;" xml:space="preserve">
<style type="text/css">
	.st0{fill:none;stroke:#FFFFFF;stroke-width:6;stroke-miterlimit:10;}
	.st1{fill:#FFFFFF;stroke:#FFFFFF;stroke-miterlimit:10;}
	.st2{fill:#FFFFFF;}
	.st3{fill:none;stroke:#FFFFFF;stroke-width:3;stroke-miterlimit:10;}
</style>
<g>
	<line class="st0" x1="0" y1="43" x2="78.9" y2="43"/>
	<path class="st1" d="M40,29.4c-5.2,0-10.4,0-15.6,0c-0.9,0-1-0.1-0.9-1c0.2-3,1.5-5.6,3.4-7.9c7.3-8.6,21-7.9,27.3,1.4
		c1.4,2,2.2,4.3,2.3,6.7c0,0.6-0.1,0.8-0.7,0.8C50.5,29.4,45.2,29.4,40,29.4z"/>
	<path class="st2" d="M45.1,5.7C45,5.6,44.9,5.2,44.7,5c-0.2-0.2-0.5-0.4-0.7-0.6c-0.8-0.5-1.2-1.2-1.2-2.2c0.1-1,0.6-1.6,1.4-2.1
		c0.3-0.2,0.6-0.1,0.7,0.2S45,0.9,44.7,1c-0.2,0.1-0.4,0.2-0.5,0.4c-0.5,0.6-0.5,1.3,0.1,1.8c0.3,0.2,0.6,0.4,0.8,0.6
		c1.5,1.1,1.3,3.1-0.2,4.1c-0.4,0.2-0.7,0.2-0.9-0.1c-0.2-0.3-0.1-0.6,0.3-0.8C44.8,6.9,45.1,6.5,45.1,5.7z"/>
	<path class="st2" d="M39.6,4.5c0,0-0.1,0-0.2-0.1c-0.7-0.5-1.2-1.2-1.1-2.1c0-1,0.5-1.6,1.4-2.1C40,0,40.3,0.1,40.5,0.4
		c0.2,0.3,0.1,0.6-0.3,0.8c-1.1,0.7-1.1,1.7-0.1,2.4C40.4,3.8,40.7,4,41,4.3c1.2,1.2,0.7,3-0.7,3.8c-0.3,0.2-0.6,0.1-0.7-0.2
		c-0.2-0.3-0.1-0.5,0.2-0.7c0.1-0.1,0.3-0.2,0.4-0.3c0.7-0.6,0.7-1.4-0.1-2C39.9,4.8,39.8,4.6,39.6,4.5z"/>
	<path class="st2" d="M35.3,8.3c-0.2-0.1-0.4-0.3-0.4-0.4c0-0.2,0.1-0.4,0.2-0.6c0.2-0.2,0.4-0.3,0.6-0.5c0.4-0.5,0.4-1.1-0.1-1.6
		c-0.2-0.2-0.4-0.6-0.5-0.6c-0.4,0-0.5-0.2-0.7-0.4c-1.2-1.1-0.9-3.2,0.7-3.9c0.3-0.1,0.6-0.1,0.8,0.2c0.2,0.3,0,0.5-0.3,0.8
		c-0.2,0.1-0.4,0.3-0.6,0.5c-0.4,0.5-0.3,1.2,0.2,1.7c0.3,0.2,0.6,0.4,0.9,0.7c1.4,1.1,1.4,3-0.2,4C35.7,8.1,35.5,8.2,35.3,8.3z"/>
	<line class="st3" x1="21.2" y1="34.1" x2="59" y2="34.1"/>
	<line class="st3" x1="37.1" y1="11.5" x2="42.8" y2="11.5"/>
</g>
</svg>
