<?xml version="1.0" encoding="utf-8"?>
<!-- Generator: Adobe Illustrator 22.0.1, SVG Export Plug-In . SVG Version: 6.00 Build 0)  -->
<svg version="1.1" id="Layer_1" xmlns="http://www.w3.org/2000/svg" xmlns:xlink="http://www.w3.org/1999/xlink" x="0px" y="0px"
	 viewBox="0 0 79 46" style="enable-background:new 0 0 79 46;" xml:space="preserve">
<style type="text/css">
	.st0{fill:none;stroke:#FFFFFF;stroke-width:6;stroke-miterlimit:10;}
	.st1{fill:#FFFFFF;stroke:#FFFFFF;stroke-width:2;stroke-miterlimit:10;}
	.st2{fill:none;stroke:#FFFFFF;stroke-width:3;stroke-miterlimit:10;}
</style>
<g>
	<line class="st0" x1="0.1" y1="43" x2="79" y2="43"/>
	<g>
		<path class="st1" d="M29.9,10.3c0,0.7-0.6,1.3-1.3,1.3h-3.1c-0.7,0-1.3-0.6-1.3-1.3v-3c0-0.7,0.6-1.3,1.3-1.3h3.1
			c0.7,0,1.3,0.6,1.3,1.3V10.3z"/>
		<path class="st1" d="M29.9,21.3c0,0.7-0.6,1.3-1.3,1.3h-3.1c-0.7,0-1.3-0.6-1.3-1.3v-2.9c0-0.7,0.6-1.3,1.3-1.3h3.1
			c0.7,0,1.3,0.6,1.3,1.3V21.3z"/>
		<path class="st1" d="M29.9,32.3c0,0.7-0.6,1.3-1.3,1.3h-3.1c-0.7,0-1.3-0.6-1.3-1.3v-2.9c0-0.7,0.6-1.3,1.3-1.3h3.1
			c0.7,0,1.3,0.6,1.3,1.3V32.3z"/>
		<line class="st2" x1="36.4" y1="19.7" x2="54.8" y2="19.7"/>
		<line class="st2" x1="36.2" y1="8.9" x2="54.6" y2="8.9"/>
		<line class="st2" x1="36.2" y1="30.9" x2="54.6" y2="30.9"/>
	</g>
</g>
</svg>
