<?xml version="1.0" encoding="utf-8"?>
<!-- Generator: Adobe Illustrator 22.0.1, SVG Export Plug-In . SVG Version: 6.00 Build 0)  -->
<svg version="1.1" id="Layer_1" xmlns="http://www.w3.org/2000/svg" xmlns:xlink="http://www.w3.org/1999/xlink" x="0px" y="0px"
	 viewBox="0 0 33 33" style="enable-background:new 0 0 33 33;" xml:space="preserve">
<style type="text/css">
	.st0{fill:none;stroke:#FFFFFF;stroke-width:2;stroke-miterlimit:10;}
	.st1{fill:#FFFFFF;}
	.st2{fill:none;}
</style>
<g>
	<path class="st0" d="M16.5,26.9c-4.5,0-9.1,0-13.6,0C2,26.9,2,26.8,2,26c0.2-2.6,1.3-4.9,3-6.9c6.4-7.5,18.4-6.9,23.9,1.2
		c1.2,1.7,1.9,3.8,2,5.9c0,0.5-0.1,0.7-0.6,0.7C25.6,26.9,21,26.9,16.5,26.9z"/>
	<path class="st1" d="M20.9,6.1c-0.1-0.1-0.2-0.4-0.3-0.6C20.4,5.4,20.1,5.2,20,5c-0.7-0.4-1-1-1-1.9c0.1-0.9,0.5-1.4,1.2-1.8
		c0.3-0.2,0.5-0.1,0.6,0.2C20.8,1.7,20.8,2,20.6,2c-0.2,0.1-0.3,0.2-0.4,0.3c-0.4,0.5-0.4,1.1,0.1,1.6c0.3,0.2,0.5,0.3,0.7,0.5
		c1.3,1,1.1,2.7-0.2,3.6C20.4,8.2,20.1,8.2,20,8c-0.2-0.3-0.1-0.5,0.3-0.7C20.7,7.2,20.9,6.8,20.9,6.1z"/>
	<path class="st1" d="M16.1,5.1c0,0-0.1,0-0.2-0.1c-0.6-0.4-1-1-1-1.8c0-0.9,0.4-1.4,1.2-1.8c0.3-0.2,0.5-0.1,0.7,0.2
		C17.1,1.8,17,2,16.6,2.2c-1,0.6-1,1.5-0.1,2.1c0.3,0.2,0.5,0.3,0.8,0.6c1,1,0.6,2.6-0.6,3.3c-0.3,0.2-0.5,0.1-0.6-0.2
		c-0.2-0.3-0.1-0.4,0.2-0.6c0.1-0.1,0.3-0.2,0.3-0.3c0.6-0.5,0.6-1.2-0.1-1.7C16.4,5.4,16.3,5.2,16.1,5.1z"/>
	<path class="st1" d="M12.4,8.4C12.2,8.3,12,8.2,12,8.1c0-0.2,0.1-0.3,0.2-0.5c0.2-0.2,0.3-0.3,0.5-0.4c0.3-0.4,0.3-1-0.1-1.4
		c-0.2-0.2-0.3-0.5-0.4-0.5c-0.3,0-0.4-0.2-0.6-0.3c-1-1-0.8-2.8,0.6-3.4c0.3-0.1,0.5-0.1,0.7,0.2c0.2,0.3,0,0.4-0.3,0.7
		c-0.2,0.1-0.3,0.3-0.5,0.4c-0.3,0.4-0.3,1,0.2,1.5c0.3,0.2,0.5,0.3,0.8,0.6c1.2,1,1.2,2.6-0.2,3.5C12.7,8.2,12.5,8.3,12.4,8.4z"/>
	<line class="st0" x1="0" y1="31" x2="33.1" y2="31"/>
	<line class="st0" x1="13.9" y1="11.2" x2="18.9" y2="11.2"/>
</g>
<rect x="-259" y="-157.2" class="st2" width="226.4" height="99.3"/>
</svg>
