<svg width="49" height="49" viewBox="0 0 49 49" fill="none" xmlns="http://www.w3.org/2000/svg">
<rect width="49" height="49" fill="white"/>
<path d="M6 24.3316H43.1173" stroke="black" stroke-width="2" stroke-linecap="round" stroke-linejoin="round"/>
<path d="M37.9209 15.0522H26.0433H23.2595H11.1964C9.34054 15.0522 8.04143 17.0937 8.96936 18.764C9.34054 19.3207 9.52612 20.0631 9.52612 20.8054V35.8379C9.52612 38.8073 11.9387 41.22 14.9081 41.22H23.2595H26.0433H34.3947C37.3641 41.22 39.7767 38.8073 39.7767 35.8379V20.6198C39.7767 19.8775 39.9623 19.3207 40.3335 18.5784C41.0758 16.9081 39.7767 15.0522 37.9209 15.0522Z" fill="white" stroke="black" stroke-miterlimit="10"/>
<path d="M27.8992 11.5261C27.8992 9.67028 26.4145 8.18559 24.5586 8C22.7028 8 21.2181 9.48469 21.0325 11.3406" stroke="black" stroke-width="2"/>
<path d="M9.52612 12.0829H39.5912" stroke="black" stroke-width="2" stroke-linecap="round" stroke-linejoin="round"/>
<path d="M49 0H0V49H49V0Z" fill="white"/>
<path d="M44.425 4H4V44.425H44.425V4Z" fill="white"/>
<path d="M8 27.3855H37.7831" stroke="black" stroke-width="2" stroke-linecap="round" stroke-linejoin="round"/>
<path d="M34.4578 20.3012C36.1927 22.759 40.6746 22.759 41.6866 19.5783C42.1204 18.1325 40.9638 15.9639 39.2288 15.8193C38.6505 15.6747 38.5059 15.241 38.7951 14.8072C39.6626 13.2169 39.518 11.9157 38.6505 11.0482C37.6385 10.0362 36.3373 9.74701 34.8915 10.4699C34.4578 10.6145 34.024 10.4699 33.8794 9.89158C33.7349 9.31327 33.7349 8.73496 33.3011 8.30123C32.1445 7.00003 30.1204 8.44581 26.6505 9.45785" stroke="black" stroke-miterlimit="10"/>
<path d="M33.5902 19.8675H24.0481H21.7348H12.1927C10.7469 19.8675 9.73484 21.4578 10.4577 22.7591C10.7469 23.1928 10.8915 23.7711 10.8915 24.3494V36.494C10.8915 38.9518 12.9156 40.8313 15.2288 40.8313H21.8794H24.1926H30.5541C33.0119 40.8313 34.8914 38.8072 34.8914 36.494V24.3494C34.8914 23.7711 35.036 23.1928 35.3251 22.7591C36.048 21.4578 35.036 19.8675 33.5902 19.8675Z" fill="white" stroke="black" stroke-miterlimit="10"/>
<path d="M23.4698 10.3253C22.8915 9.0241 21.3011 8.44579 19.9999 9.0241C18.6987 9.60241 18.1204 11.1928 18.6987 12.494" stroke="black" stroke-width="2"/>
<path d="M10.6024 16.6867L31.9999 7" stroke="black" stroke-width="2" stroke-linecap="round" stroke-linejoin="round"/>
<path d="M6 24.3316H43.1173" stroke="black" stroke-width="2" stroke-linecap="round" stroke-linejoin="round"/>
<path d="M37.9209 15.0522H26.0433H23.2595H11.1964C9.34054 15.0522 8.04143 17.0937 8.96936 18.764C9.34054 19.3207 9.52612 20.0631 9.52612 20.8054V35.8379C9.52612 38.8073 11.9387 41.22 14.9081 41.22H23.2595H26.0433H34.3947C37.3641 41.22 39.7767 38.8073 39.7767 35.8379V20.6198C39.7767 19.8775 39.9623 19.3207 40.3335 18.5784C41.0758 16.9081 39.7767 15.0522 37.9209 15.0522Z" fill="white" stroke="black" stroke-miterlimit="10"/>
<path d="M27.8992 11.5261C27.8992 9.67028 26.4145 8.18559 24.5586 8C22.7028 8 21.2181 9.48469 21.0325 11.3406" stroke="black" stroke-width="2"/>
<path d="M9.52612 12.0829H39.5912" stroke="black" stroke-width="2" stroke-linecap="round" stroke-linejoin="round"/>
<path d="M49 0H0V49H49V0Z" fill="white"/>
<path d="M8 27.3855H37.7831" stroke="black" stroke-width="2" stroke-linecap="round" stroke-linejoin="round"/>
<path d="M34.4577 20.3012C36.1927 22.759 40.6746 22.759 41.6866 19.5783C42.1204 18.1325 40.9637 15.9639 39.2288 15.8193C38.6505 15.6747 38.5059 15.241 38.7951 14.8072C39.6625 13.2169 39.5179 11.9157 38.6505 11.0482C37.6384 10.0362 36.3372 9.74701 34.8915 10.4699C34.4577 10.6145 34.024 10.4699 33.8794 9.89158C33.7348 9.31327 33.7348 8.73496 33.3011 8.30123C32.1445 7.00003 30.1204 8.44581 26.6505 9.45785" stroke="black" stroke-miterlimit="10"/>
<path d="M33.5902 19.8675H24.048H21.7348H12.1926C10.7469 19.8675 9.73481 21.4578 10.4577 22.7591C10.7469 23.1928 10.8914 23.7711 10.8914 24.3494V36.494C10.8914 38.9518 12.9155 40.8313 15.2288 40.8313H21.8794H24.1926H30.554C33.0119 40.8313 34.8914 38.8072 34.8914 36.494V24.3494C34.8914 23.7711 35.0359 23.1928 35.3251 22.7591C36.048 21.4578 35.0359 19.8675 33.5902 19.8675Z" fill="white" stroke="black" stroke-miterlimit="10"/>
<path d="M23.4698 10.3253C22.8915 9.0241 21.3011 8.44579 19.9999 9.0241C18.6987 9.60241 18.1204 11.1928 18.6987 12.494" stroke="black" stroke-width="2"/>
<path d="M10.6024 16.6867L31.9999 7" stroke="black" stroke-width="2" stroke-linecap="round" stroke-linejoin="round"/>
</svg>
