<svg width="50" height="50" viewBox="0 0 50 50" fill="none" xmlns="http://www.w3.org/2000/svg">
<rect width="50" height="50" fill="white"/>
<circle cx="25" cy="25" r="24.5" fill="#FFFF00" stroke="black"/>
<path d="M26.2727 15C26.2727 14.4477 25.825 14 25.2727 14C24.7204 14 24.2727 14.4477 24.2727 15L26.2727 15ZM24.2727 33C24.2727 33.5523 24.7204 34 25.2727 34C25.825 34 26.2727 33.5523 26.2727 33L24.2727 33ZM24.2727 15L24.2727 33L26.2727 33L26.2727 15L24.2727 15Z" fill="black"/>
<path d="M34 24.7273C34.5523 24.7273 35 24.2796 35 23.7273C35 23.175 34.5523 22.7273 34 22.7273L34 24.7273ZM16 22.7273C15.4477 22.7273 15 23.175 15 23.7273C15 24.2796 15.4477 24.7273 16 24.7273L16 22.7273ZM34 22.7273L16 22.7273L16 24.7273L34 24.7273L34 22.7273Z" fill="black"/>
</svg>
