<svg width="49" height="49" viewBox="0 0 49 49" fill="none" xmlns="http://www.w3.org/2000/svg">
<rect width="49" height="49" fill="white"/>
<path d="M49 0H0V49H49V0Z" fill="white"/>
<path d="M37.8594 10.5127L23.1594 25.2127H32.6531C36.175 25.2127 38.9313 22.4564 38.9313 18.9346V17.2502V10.9721C39.0844 10.3596 38.3188 10.0533 37.8594 10.5127Z" fill="black" stroke="white" stroke-width="2.5" stroke-miterlimit="10" stroke-linecap="round" stroke-linejoin="round"/>
<path d="M10.9094 10.5127L25.6094 25.2127H16.1156C12.5938 25.2127 9.83751 22.4564 9.83751 18.9346V17.2502V10.9721C9.68439 10.3596 10.45 10.0533 10.9094 10.5127Z" fill="black" stroke="white" stroke-width="2.5" stroke-miterlimit="10" stroke-linecap="round" stroke-linejoin="round"/>
<path d="M25.9156 26.8971C26.6767 26.8971 27.2938 26.28 27.2938 25.5189C27.2938 24.7578 26.6767 24.1408 25.9156 24.1408C25.1545 24.1408 24.5375 24.7578 24.5375 25.5189C24.5375 26.28 25.1545 26.8971 25.9156 26.8971Z" fill="black" stroke="black" stroke-miterlimit="10"/>
<path d="M35.4094 27.8158C34.7969 27.0502 34.6438 26.1314 34.7969 25.2127C34.95 24.9064 34.95 24.447 34.95 24.1408C34.95 20.1595 30.05 16.9439 24.0781 16.9439C18.1063 16.9439 13.2063 20.1595 13.2063 24.1408C13.2063 24.6002 13.2063 24.9064 13.3594 25.3658C13.5125 26.2845 13.2063 27.2033 12.5938 27.9689C11.5219 29.1939 10.9094 30.7252 10.9094 32.4095C10.9094 37.3095 16.7281 41.2908 23.7719 41.2908C30.8156 41.2908 36.6344 37.3095 36.6344 32.4095C37.0938 30.4189 36.4813 29.0408 35.4094 27.8158Z" fill="white"/>
<path d="M26.375 27.5095C27.1361 27.5095 27.7531 26.8925 27.7531 26.1314C27.7531 25.3703 27.1361 24.7533 26.375 24.7533C25.6139 24.7533 24.9969 25.3703 24.9969 26.1314C24.9969 26.8925 25.6139 27.5095 26.375 27.5095Z" fill="black"/>
<path d="M21.9344 27.5095C22.6955 27.5095 23.3125 26.8925 23.3125 26.1314C23.3125 25.3703 22.6955 24.7533 21.9344 24.7533C21.1733 24.7533 20.5563 25.3703 20.5563 26.1314C20.5563 26.8925 21.1733 27.5095 21.9344 27.5095Z" fill="black"/>
<path d="M24.2313 33.6346C27.1066 33.6346 29.4375 32.6062 29.4375 31.3377C29.4375 30.0692 27.1066 29.0408 24.2313 29.0408C21.3559 29.0408 19.025 30.0692 19.025 31.3377C19.025 32.6062 21.3559 33.6346 24.2313 33.6346Z" fill="black"/>
<path d="M39.5437 8.21584C38.625 7.75646 37.8594 8.06271 37.0938 8.82834C34.4906 11.5846 31.7344 14.3408 29.1313 17.2502C27.6 16.7908 26.0687 16.4846 24.2312 16.4846C22.5469 16.4846 20.8625 16.7908 19.4844 17.2502C17.0344 14.3408 14.2781 11.5846 11.675 8.82834C10.9094 8.06271 10.1437 7.75646 9.225 8.21584C8.45937 8.67521 8 9.44084 8 10.3596C8 13.269 8 16.1783 8 19.0877C8 22.7627 10.1437 25.8252 13.2062 27.0502C13.2062 27.2033 13.0531 27.2033 13.0531 27.3565C11.9813 28.7346 11.3687 30.1127 11.3687 31.7971C11.3687 36.6971 17.1875 40.6783 24.2312 40.6783C31.275 40.6783 37.0938 36.6971 37.0938 31.7971C37.0938 30.2658 36.4813 28.7346 35.5625 27.5096C35.4094 27.3565 35.4094 27.3565 35.4094 27.2033C38.625 26.1315 40.7688 22.9158 40.7688 19.2408C40.7688 16.3315 40.7688 13.4221 40.7688 10.5127C40.9219 9.44084 40.4625 8.67521 39.5437 8.21584Z" stroke="black" stroke-miterlimit="10"/>
<path d="M22.0875 35.9315C23.4656 36.3908 24.9969 36.3908 26.375 35.9315" stroke="black" stroke-miterlimit="10" stroke-linecap="round"/>
</svg>
