<?xml version="1.0" encoding="utf-8"?>
<!-- Generator: Adobe Illustrator 22.0.1, SVG Export Plug-In . SVG Version: 6.00 Build 0)  -->
<svg version="1.1" id="Layer_1" xmlns="http://www.w3.org/2000/svg" xmlns:xlink="http://www.w3.org/1999/xlink" x="0px" y="0px"
	 viewBox="0 0 79 46" style="enable-background:new 0 0 79 46;" xml:space="preserve">
<style type="text/css">
	.st0{fill:none;stroke:#FFFFFF;stroke-width:6;stroke-miterlimit:10;}
	.st1{fill:#FFFFFF;}
</style>
<g>
	<line class="st0" x1="0.1" y1="43" x2="79.1" y2="43"/>
	<path class="st1" d="M52.6,15.8c-0.1,2.4-0.8,4.7-1.9,6.9c-1.5,3.1-3.6,5.9-6,8.6c-1.3,1.4-2.7,2.8-4.3,4c-0.7,0.5-0.5,0.5-1.2,0
		c-2-1.6-3.7-3.4-5.3-5.3c-2.2-2.6-4.1-5.4-5.4-8.4c-0.9-2-1.4-4.1-1.3-6.2c0.2-4.7,4.1-8.8,9.5-9.9c7-1.5,14.1,2.1,15.6,8.1
		C52.3,14.2,52.4,15,52.6,15.8z M39.8,9.4c-4.1,0-7.5,2.8-7.5,6.2c0,3.5,3.3,6.3,7.4,6.3s7.5-2.8,7.5-6.2
		C47.3,12.3,43.8,9.5,39.8,9.4z"/>
</g>
</svg>
