<svg width="49" height="49" viewBox="0 0 49 49" fill="none" xmlns="http://www.w3.org/2000/svg">
<rect width="49" height="49" fill="white"/>
<path d="M49 0H0V49H49V0Z" fill="white"/>
<path d="M24.5 9C15.4657 9 7.96252 15.7375 7.96252 24.0063C7.96252 26.7625 8.72815 29.2125 9.95315 31.2031C10.4125 31.9687 10.5657 32.7344 10.4125 33.5L9.34065 40.6969C9.34065 41.4625 10.1063 42.075 10.8719 41.6156L14.7 38.2469C15.6188 37.4812 16.9969 37.175 18.2219 37.7875C20.2125 38.5531 22.3563 38.8594 24.6532 38.8594C33.6875 38.8594 41.0375 32.1219 41.0375 23.8531C41.0375 15.7375 33.5344 9 24.5 9Z" fill="#FFFF00" stroke="black" stroke-miterlimit="10"/>
<path d="M24.5 29.3657C23.1219 27.9876 21.8969 26.7626 20.6719 25.5376C20.2125 25.0782 19.9062 24.4657 19.9062 23.8532C19.9062 22.7813 20.5187 22.0157 21.4375 21.7094C22.3562 21.2501 23.275 21.5563 24.0406 22.1688C24.1937 22.3219 24.3469 22.4751 24.3469 22.6282C24.5 22.4751 24.6531 22.3219 24.8063 22.1688C25.5719 21.5563 26.3375 21.2501 27.2562 21.5563C28.175 21.8626 28.7875 22.6282 28.9406 23.5469C29.0937 24.3126 28.7875 25.0782 28.3281 25.5376C27.5625 26.3032 26.95 26.9157 26.1844 27.6813C25.725 28.1407 24.5 29.3657 24.5 29.3657Z" fill="black"/>
</svg>
