<?xml version="1.0" encoding="utf-8"?>
<!-- Generator: Adobe Illustrator 22.0.1, SVG Export Plug-In . SVG Version: 6.00 Build 0)  -->
<svg version="1.1" id="Layer_1" xmlns="http://www.w3.org/2000/svg" xmlns:xlink="http://www.w3.org/1999/xlink" x="0px" y="0px"
	 viewBox="0 0 33 33" style="enable-background:new 0 0 33 33;" xml:space="preserve">
<style type="text/css">
	.st0{fill:none;stroke:#13A049;stroke-width:2;stroke-miterlimit:10;}
	.st1{fill:none;}
</style>
<path class="st0" d="M7,7.1c0,0.7-0.6,1.3-1.3,1.3H2.6c-0.7,0-1.3-0.6-1.3-1.3v-3c0-0.7,0.6-1.3,1.3-1.3h3.1C6.4,2.8,7,3.4,7,4.1
	V7.1z"/>
<path class="st0" d="M7,18.1c0,0.7-0.6,1.3-1.3,1.3H2.6c-0.7,0-1.3-0.6-1.3-1.3v-2.9c0-0.7,0.6-1.3,1.3-1.3h3.1
	c0.7,0,1.3,0.6,1.3,1.3V18.1z"/>
<path class="st0" d="M7,29.1c0,0.7-0.6,1.3-1.3,1.3H2.6c-0.7,0-1.3-0.6-1.3-1.3v-2.9c0-0.7,0.6-1.3,1.3-1.3h3.1
	c0.7,0,1.3,0.6,1.3,1.3V29.1z"/>
<line class="st0" x1="13.5" y1="16.5" x2="31.9" y2="16.5"/>
<line class="st0" x1="13.3" y1="5.7" x2="31.7" y2="5.7"/>
<line class="st0" x1="13.3" y1="27.7" x2="31.7" y2="27.7"/>
<rect x="-156.2" y="-160.6" class="st1" width="226.4" height="99.3"/>
</svg>
