<?xml version="1.0" encoding="utf-8"?>
<!-- Generator: Adobe Illustrator 22.0.1, SVG Export Plug-In . SVG Version: 6.00 Build 0)  -->
<svg version="1.1" id="Layer_1" xmlns="http://www.w3.org/2000/svg" xmlns:xlink="http://www.w3.org/1999/xlink" x="0px" y="0px"
	 viewBox="0 0 33 33" style="enable-background:new 0 0 33 33;" xml:space="preserve">
<style type="text/css">
	.st0{fill:none;stroke:#13A049;stroke-width:2;stroke-miterlimit:10;}
	.st1{fill:none;}
</style>
<path class="st0" d="M29.3,12c-0.1,2.4-0.8,4.7-1.9,6.9c-1.5,3.1-3.6,5.9-6,8.6c-1.3,1.4-2.7,2.8-4.3,4c-0.7,0.5-0.5,0.5-1.2,0
	c-2-1.6-3.7-3.4-5.3-5.3c-2.2-2.6-4.1-5.4-5.4-8.4c-0.9-2-1.4-4.1-1.3-6.2C4.1,6.9,8,2.8,13.4,1.7c7-1.5,14.1,2.1,15.6,8.1
	C29.1,10.4,29.2,11.2,29.3,12z M16.5,5.6C12.4,5.6,9,8.4,9,11.8c0,3.5,3.3,6.3,7.4,6.3s7.5-2.8,7.5-6.2C24,8.5,20.6,5.7,16.5,5.6z"
	/>
<rect x="-54.5" y="-161.2" class="st1" width="226.4" height="99.3"/>
</svg>
