<svg width="49" height="49" viewBox="0 0 49 49" fill="none" xmlns="http://www.w3.org/2000/svg">
<rect width="49" height="49" fill="white"/>
<path d="M49 0H0V49H49V0Z" fill="white"/>
<path d="M37.7769 12.6507L23.2663 27.1613H32.7889C36.2654 27.1613 38.9861 24.4405 38.9861 20.964V19.3014V13.1041C38.835 12.4995 38.0792 12.1972 37.7769 12.6507Z" fill="black" stroke="#FFFF00" stroke-width="3.82812" stroke-miterlimit="10" stroke-linecap="round" stroke-linejoin="round"/>
<path d="M10.8718 12.6507L25.3824 27.1613H15.8598C12.3833 27.1613 9.66261 24.4405 9.66261 20.964V19.3014V13.1041C9.81376 12.4995 10.4184 12.1972 10.8718 12.6507Z" fill="black" stroke="#FFFF00" stroke-width="3.82812" stroke-miterlimit="10" stroke-linecap="round" stroke-linejoin="round"/>
<path d="M25.8359 29.1262C26.6707 29.1262 27.3474 28.4495 27.3474 27.6147C27.3474 26.7799 26.6707 26.1032 25.8359 26.1032C25.0011 26.1032 24.3244 26.7799 24.3244 27.6147C24.3244 28.4495 25.0011 29.1262 25.8359 29.1262Z" fill="black" stroke="black" stroke-width="1.53125" stroke-miterlimit="10"/>
<path d="M35.3585 29.7308C34.7539 28.9751 34.6027 28.0682 34.7539 27.0101C34.905 26.5567 34.905 26.2543 34.905 25.8009C34.905 21.8709 30.0682 18.5456 24.1732 18.5456C18.2783 18.5456 13.4414 21.7198 13.4414 25.8009C13.4414 26.2543 13.4414 26.5567 13.5926 27.0101C13.7437 27.917 13.4414 28.8239 12.8368 29.5797C11.9299 30.7889 11.3253 32.3004 11.3253 33.9631C11.3253 38.8 17.0691 42.7299 24.1732 42.7299C31.2774 42.7299 37.0212 38.8 37.0212 33.9631C36.87 32.3004 36.4166 30.9401 35.3585 29.7308Z" fill="#FFFF00"/>
<path d="M24.1732 35.6258C27.0115 35.6258 29.3124 34.6107 29.3124 33.3585C29.3124 32.1063 27.0115 31.0912 24.1732 31.0912C21.335 31.0912 19.0341 32.1063 19.0341 33.3585C19.0341 34.6107 21.335 35.6258 24.1732 35.6258Z" fill="black"/>
<path d="M22.2083 29.7308C23.0431 29.7308 23.7198 29.0541 23.7198 28.2193C23.7198 27.3845 23.0431 26.7078 22.2083 26.7078C21.3735 26.7078 20.6967 27.3845 20.6967 28.2193C20.6967 29.0541 21.3735 29.7308 22.2083 29.7308Z" fill="black"/>
<path d="M25.8359 28.2193H27.1963" stroke="black" stroke-width="1.5" stroke-miterlimit="10" stroke-linecap="round"/>
<path d="M39.4396 10.3834C38.5327 9.92995 37.777 10.2323 37.0212 10.988C34.4516 13.7087 31.7309 16.5806 29.1613 19.3014C27.6498 18.8479 26.1382 18.5456 24.3244 18.5456C22.6618 18.5456 20.9991 18.8479 19.6387 19.3014C17.0691 16.5806 14.3484 13.8599 11.7788 10.988C11.023 10.2323 10.2673 9.92995 9.36037 10.3834C8.45346 10.8369 8 11.5926 8 12.4995C8 15.3714 8 18.2433 8 21.2664C8 24.894 10.1161 27.917 13.1392 29.1263C13.1392 29.2774 12.988 29.2774 12.988 29.4286C11.93 30.6378 11.3253 32.1493 11.3253 33.812C11.3253 38.6488 17.0691 42.5788 24.1733 42.5788C31.2774 42.5788 37.0212 38.6488 37.0212 33.812C37.0212 32.3005 36.4166 30.7889 35.5097 29.5797C35.3585 29.4286 35.3585 29.4286 35.3585 29.2774C38.5327 28.2193 40.8 25.0452 40.8 21.4175C40.8 18.5456 40.8 15.6737 40.8 12.6507C40.6488 11.5926 40.3465 10.8369 39.4396 10.3834Z" stroke="black" stroke-miterlimit="10"/>
<path d="M26.1383 38.6488C27.4986 38.3465 28.859 37.4396 29.6148 36.2304" stroke="black" stroke-width="2" stroke-miterlimit="10" stroke-linecap="round"/>
<path d="M17.5225 17.0341C17.976 17.6387 17.8248 18.9991 17.976 19.906C19.7898 19.1502 22.0571 18.6968 24.4755 18.6968C26.7428 18.6968 29.0101 19.1502 30.8239 19.7548C30.9751 18.8479 30.8239 17.4876 31.2774 16.8829C31.882 15.976 34.4516 15.0691 34.905 14.0111C35.9631 11.2903 33.0912 8.41843 31.1262 8.41843C30.5216 8.41843 29.7659 8.56959 29.3124 9.02304C28.8589 9.32535 28.2543 9.17419 28.1032 8.56959C27.4986 6.90691 26.1382 6 24.6267 6C23.1152 6 21.7548 6.90691 21.1502 8.56959C20.999 9.02304 20.3944 9.32535 19.941 9.02304C19.3364 8.72074 18.7317 8.41843 18.1271 8.41843C16.1622 8.41843 13.2903 11.2903 14.3483 14.0111C14.3483 15.3714 16.9179 16.2783 17.5225 17.0341Z" fill="white" stroke="black" stroke-miterlimit="10"/>
</svg>
