<?xml version="1.0" encoding="utf-8"?>
<!-- Generator: Adobe Illustrator 22.0.1, SVG Export Plug-In . SVG Version: 6.00 Build 0)  -->
<svg version="1.1" id="Layer_1" xmlns="http://www.w3.org/2000/svg" xmlns:xlink="http://www.w3.org/1999/xlink" x="0px" y="0px"
	 viewBox="0 0 130.4 130.4" style="enable-background:new 0 0 130.4 130.4;" xml:space="preserve">
<style type="text/css">
	.st0{fill:#A2D888;}
	.st1{fill:#F75C06;}
</style>
<g>
	<path class="st0" d="M39.4,92c0.5-0.7,22-13.6,22-13.6l-9-7.6L39.4,92z"/>
	<path class="st0" d="M39.8,40.5c0.7,0.5,13.6,22,13.6,22l7.6-9L39.8,40.5z"/>
	<path class="st0" d="M91,40.3C90.5,41,69,53.9,69,53.9l9,7.6L91,40.3z"/>
	<path class="st0" d="M90.9,91.8c-0.7-0.5-13.6-22-13.6-22l-7.6,9L90.9,91.8z"/>
	<g>
		<polygon class="st0" points="53.9,54.1 65.5,65.7 32.9,65.7 1,65.7 		"/>
		<polygon class="st1" points="54.6,76.7 65.5,65.1 33.6,65.1 1.7,65.1 		"/>
	</g>
	<g>
		<polygon class="st0" points="77.2,54 65.5,65.7 65.5,33.1 65.5,1.1 		"/>
		<polygon class="st1" points="53.9,54 65.5,65.7 65.5,33.1 65.5,1.1 		"/>
	</g>
	<g>
		<polygon class="st0" points="76.5,77.3 65.5,65.6 97.4,65.6 129.4,65.6 		"/>
		<polygon class="st1" points="77.2,54 65.6,65.6 98.1,65.6 130.1,65.6 		"/>
	</g>
	<g>
		<polygon class="st0" points="53.9,77.3 65.5,65.7 65.5,98.3 65.5,130.2 		"/>
		<polygon class="st1" points="77.2,76.7 65.5,65.1 65.5,97.7 65.5,129.6 		"/>
	</g>
</g>
</svg>
