<?xml version="1.0" encoding="utf-8"?>
<!-- Generator: Adobe Illustrator 22.0.1, SVG Export Plug-In . SVG Version: 6.00 Build 0)  -->
<svg version="1.1" id="Layer_1" xmlns="http://www.w3.org/2000/svg" xmlns:xlink="http://www.w3.org/1999/xlink" x="0px" y="0px"
	 viewBox="0 0 164.4 170.1" style="enable-background:new 0 0 164.4 170.1;" xml:space="preserve">
<style type="text/css">
	.st0{fill:none;stroke:#F75C06;stroke-miterlimit:10;}
	.st1{fill:#A2D888;}
	.st2{fill:none;stroke:#A2D888;stroke-width:4;stroke-miterlimit:10;}
</style>
<path class="st0" d="M30.4,67.9"/>
<g>
	<g>
		<path class="st1" d="M54.4,86.1c-1.1,1.1-2.2,2.2-3.3,3.3c0.3,0.3,0.5,0.5,0.8,0.8c13.2,12.7,26.5,25.5,39.7,38.2
			c1.8,1.7,3.6,3.4,5.4,5.2c1,1,1.2,1,2.1,0.2c0.8-0.8,0.8-1-0.2-2c-7.9-8.1-15.8-16.3-23.8-24.4c-6.6-6.8-13.2-13.6-19.8-20.4
			C55,86.7,54.8,86.4,54.4,86.1z"/>
		<path class="st1" d="M50.4,88.7c1.1-1.1,2.2-2.2,3.3-3.3c-8.3-8.5-16.6-17-24.9-25.6c-1.4,1.4-2.7,2.8-4.2,4.2
			C33.3,72.2,41.8,80.4,50.4,88.7z"/>
		<path class="st1" d="M28.2,59c-2.3-2.3-4.5-4.5-6.9-6.8c-1.4,1.4-2.8,2.8-4.2,4.3c2.3,2.3,4.5,4.5,6.9,6.8
			C25.4,61.9,26.7,60.5,28.2,59z"/>
	</g>
	<g>
		<path class="st1" d="M42.4,99.3c-0.9,1.3-1.7,2.6-2.6,3.9c0.3,0.2,0.6,0.4,0.9,0.6c15.5,9.8,30.9,19.7,46.4,29.5
			c2.1,1.3,4.2,2.7,6.3,4c1.2,0.8,1.4,0.7,2-0.3c0.6-0.9,0.5-1.2-0.6-1.9c-9.3-6.4-18.7-12.8-28-19.1c-7.8-5.3-15.6-10.7-23.4-16
			C43.2,99.7,42.9,99.5,42.4,99.3z"/>
		<path class="st1" d="M39.1,102.7c0.9-1.4,1.7-2.6,2.6-3.9C31.9,92,22.1,85.4,12.3,78.7c-1.1,1.7-2.1,3.3-3.2,4.9
			C19.1,90,29,96.3,39.1,102.7z"/>
		<path class="st1" d="M11.5,78.1c-2.7-1.8-5.3-3.5-8-5.3c-1.1,1.7-2.2,3.3-3.3,5c2.7,1.8,5.3,3.5,8,5.3
			C9.3,81.4,10.3,79.8,11.5,78.1z"/>
	</g>
	<path class="st1" d="M128.5,105.7"/>
	<path class="st1" d="M35.7,102c5.1,37.9,31.6,66.8,63.6,66.8c32,0,58.5-28.9,63.6-66.8H35.7z"/>
	<g>
		<path class="st2" d="M99.5,81.2C84.9,81.2,73,69.3,73,54.6S84.9,28,99.5,28"/>
		<path class="st2" d="M93.3,55.4c14.7,0,26.6-11.9,26.6-26.6S108,2.2,93.3,2.2"/>
	</g>
</g>
</svg>
