<?xml version="1.0" encoding="utf-8"?>
<!-- Generator: Adobe Illustrator 22.0.1, SVG Export Plug-In . SVG Version: 6.00 Build 0)  -->
<svg version="1.1" id="Layer_1" xmlns="http://www.w3.org/2000/svg" xmlns:xlink="http://www.w3.org/1999/xlink" x="0px" y="0px"
	 viewBox="0 0 90.7 90.7" style="enable-background:new 0 0 90.7 90.7;" xml:space="preserve">
<style type="text/css">
	.st0{fill:#F75C06;}
	.st1{fill:none;stroke:#A2E08A;stroke-width:3;stroke-miterlimit:10;}
	.st2{fill:#FFFFFF;}
</style>
<g>
	<circle class="st0" cx="45.8" cy="45.1" r="20.3"/>
	<circle class="st1" cx="45.8" cy="45.1" r="42.5"/>
	<circle class="st1" cx="45.8" cy="45.1" r="35"/>
	<polyline class="st0" points="25.8,48.9 10.8,45.2 10.7,45.1 25.8,41.1 	"/>
	<polyline class="st0" points="34.3,62 21,69.9 20.9,69.9 28.8,56.4 	"/>
	<polyline class="st0" points="49.5,65.1 45.7,80.1 45.6,80.2 41.7,65.1 	"/>
	<polyline class="st0" points="62.6,56.6 70.5,69.9 70.5,70 57,62.1 	"/>
	<polyline class="st0" points="65.6,41.3 80.7,45.1 80.7,45.2 65.6,49.2 	"/>
	<polyline class="st0" points="57.2,28.3 70.5,20.4 70.6,20.4 62.7,33.9 	"/>
	<polyline class="st0" points="42,25.2 45.8,10.2 45.8,10.1 49.8,25.2 	"/>
	<polyline class="st0" points="28.9,33.7 21,20.3 21,20.3 34.5,28.1 	"/>
	<circle class="st2" cx="45.8" cy="45.1" r="13"/>
</g>
</svg>
