<?xml version="1.0" encoding="utf-8"?>
<!-- Generator: Adobe Illustrator 22.0.1, SVG Export Plug-In . SVG Version: 6.00 Build 0)  -->
<svg version="1.1" id="Layer_1" xmlns="http://www.w3.org/2000/svg" xmlns:xlink="http://www.w3.org/1999/xlink" x="0px" y="0px"
	 viewBox="0 0 141.7 87.9" style="enable-background:new 0 0 141.7 87.9;" xml:space="preserve">
<style type="text/css">
	.st0{fill:#F75C06;}
	.st1{fill:#A2D888;}
	.st2{fill:none;stroke:#FFFFFF;stroke-width:3;stroke-miterlimit:10;}
</style>
<g>
	<g>
		<path class="st0" d="M26,39.5c-0.9-0.7-1.8-1.3-2.7-2c0.2-0.2,0.3-0.4,0.5-0.6C31.7,26.5,39.6,16,47.5,5.6
			c1.1-1.4,2.1-2.8,3.2-4.2c0.6-0.8,0.7-0.8,1.4-0.3c0.6,0.5,0.6,0.6,0.1,1.4c-4.7,6.6-9.3,13.2-14,19.8c-3.9,5.5-7.8,11-11.7,16.5
			C26.4,39,26.2,39.2,26,39.5z"/>
		<path class="st0" d="M22.9,38.1c0.9,0.7,1.8,1.3,2.7,2C20.8,47,15.9,53.9,11,60.8c-1.1-0.8-2.2-1.6-3.4-2.5
			C12.7,51.6,17.8,44.8,22.9,38.1z"/>
		<path class="st0" d="M10.6,61.4c-1.4,1.9-2.7,3.7-4.1,5.5c-1.1-0.8-2.3-1.7-3.5-2.5c1.3-1.8,2.7-3.7,4.1-5.5
			C8.3,59.7,9.4,60.5,10.6,61.4z"/>
	</g>
	<g>
		<path class="st0" d="M118.7,37.5c-0.9,0.7-1.8,1.3-2.7,2c-0.2-0.2-0.3-0.4-0.5-0.6c-7.6-10.7-15.1-21.3-22.7-32
			c-1-1.4-2-2.9-3.1-4.3c-0.6-0.8-0.6-1,0.1-1.5c0.6-0.5,0.8-0.4,1.4,0.4c4.9,6.4,9.8,12.9,14.7,19.3c4.1,5.4,8.2,10.7,12.2,16.1
			C118.4,37,118.5,37.2,118.7,37.5z"/>
		<path class="st0" d="M116.5,40c0.9-0.7,1.8-1.3,2.7-2c5.1,6.7,10.2,13.4,15.4,20.2c-1.1,0.8-2.2,1.6-3.4,2.5
			C126.2,53.8,121.4,46.9,116.5,40z"/>
		<path class="st0" d="M135,58.8c1.4,1.9,2.7,3.7,4.1,5.5c-1.1,0.8-2.3,1.7-3.4,2.5c-1.3-1.8-2.7-3.7-4.1-5.5
			C132.7,60.4,133.8,59.6,135,58.8z"/>
	</g>
	<ellipse class="st1" cx="71" cy="56.7" rx="30.7" ry="30.8"/>
	<ellipse class="st2" cx="71.1" cy="56.7" rx="19.9" ry="20"/>
</g>
</svg>
