<?xml version="1.0" encoding="utf-8"?>
<!-- Generator: Adobe Illustrator 22.0.1, SVG Export Plug-In . SVG Version: 6.00 Build 0)  -->
<svg version="1.1" id="Layer_1" xmlns="http://www.w3.org/2000/svg" xmlns:xlink="http://www.w3.org/1999/xlink" x="0px" y="0px"
	 viewBox="0 0 105.8 51.5" style="enable-background:new 0 0 105.8 51.5;" xml:space="preserve">
<style type="text/css">
	.st0{fill:#A2D888;}
	.st1{fill:none;stroke:#F75C06;stroke-miterlimit:10;}
</style>
<g>
	<g>
		<g>
			<path class="st0" d="M45.7,14.1c-0.5,1.5-0.9,2.8-1.3,4.3c0.4,0.1,0.7,0.2,1,0.3c17.1,4.9,34.2,9.8,51.2,14.8
				c2.3,0.7,4.6,1.3,6.9,2c1.3,0.4,1.5,0.3,1.8-0.8c0.3-1,0.2-1.2-1.1-1.6C93.9,29.7,83.4,26.3,73,23c-8.7-2.8-17.4-5.7-26.2-8.5
				C46.5,14.4,46.1,14.3,45.7,14.1z"/>
			<path class="st0" d="M43.5,18.2c0.5-1.5,0.9-2.8,1.3-4.3C33.9,10.3,22.9,6.8,12,3.2c-0.6,1.8-1.1,3.6-1.7,5.5
				C21.3,11.8,32.4,15,43.5,18.2z"/>
			<path class="st0" d="M11,2.9C8,1.9,5.1,1,2.1,0.1C1.5,2,1,3.8,0.4,5.7c3,0.9,5.9,1.8,8.9,2.7C9.9,6.6,10.5,4.8,11,2.9z"/>
		</g>
		<g>
			<path class="st0" d="M45.7,37.2c-0.5-1.5-0.9-2.8-1.3-4.3c0.4-0.1,0.7-0.2,1-0.3c17.1-4.9,34.2-9.8,51.2-14.8
				c2.3-0.7,4.6-1.3,6.9-2c1.3-0.4,1.5-0.3,1.8,0.8c0.3,1,0.2,1.2-1.1,1.6C93.9,21.6,83.4,25,73,28.4c-8.7,2.8-17.4,5.7-26.2,8.5
				C46.5,37,46.1,37.1,45.7,37.2z"/>
			<path class="st0" d="M43.5,33.1c0.5,1.5,0.9,2.8,1.3,4.3C33.9,41,22.9,44.6,12,48.1c-0.6-1.8-1.1-3.6-1.7-5.5
				C21.3,39.5,32.4,36.3,43.5,33.1z"/>
			<path class="st0" d="M11,48.5c-3,0.9-5.9,1.8-8.9,2.7c-0.6-1.8-1.1-3.7-1.7-5.6c3-0.9,5.9-1.8,8.9-2.7
				C9.9,44.8,10.5,46.5,11,48.5z"/>
		</g>
	</g>
</g>
<path class="st1" d="M-1.7,8.6"/>
</svg>
