<?xml version="1.0" encoding="utf-8"?>
<!-- Generator: Adobe Illustrator 22.0.1, SVG Export Plug-In . SVG Version: 6.00 Build 0)  -->
<svg version="1.1" id="Layer_1" xmlns="http://www.w3.org/2000/svg" xmlns:xlink="http://www.w3.org/1999/xlink" x="0px" y="0px"
	 viewBox="0 0 22 22" style="enable-background:new 0 0 22 22;" xml:space="preserve">
<style type="text/css">
	.st0{opacity:0;}
	.st1{fill:#FFFFFF;stroke:#000000;stroke-width:0.4925;stroke-miterlimit:10;}
	.st2{fill:#FFFF00;stroke:#000000;stroke-width:0.3073;stroke-miterlimit:10;}
	.st3{fill:#FFFFFF;stroke:#000000;stroke-width:0.3073;stroke-miterlimit:10;}
	.st4{fill:none;}
	.st5{fill:#00FF00;stroke:#000000;stroke-width:0.3073;stroke-miterlimit:10;}
	.st6{fill:none;stroke:#000000;stroke-width:0.7983;stroke-linecap:round;stroke-linejoin:round;}
	.st7{fill:none;stroke:#000000;stroke-width:0.4925;}
	.st8{fill:none;stroke:#000000;stroke-width:0.4925;stroke-linecap:round;stroke-linejoin:round;}
</style>
<g class="st0">
	<path class="st1" d="M-25,7.7c0,0.9,0.1,1.7,0.5,2.4c0.7,1.6,1.5,3.1,2.2,4.7c0.9,2,1.9,4,2.8,6c0.1,0.2,0.2,0.4,0.4,0.5
		c0.9,0.8,2.3,0.5,2.8-0.6c0.5-1.2,1.1-2.3,1.6-3.5c0.9-2,1.8-3.9,2.8-5.8c0.3-0.6,0.6-1.1,0.8-1.7c0.4-1.2,0.4-2.5,0.1-3.8
		c-0.4-1.9-1.6-3.4-3.2-4.4c-1.6-1-3.4-1.3-5.3-0.9c-1.9,0.4-3.3,1.5-4.4,3C-24.7,4.8-25,6.1-25,7.7z"/>
	<circle class="st2" cx="-17.9" cy="7.5" r="3.6"/>
	<circle class="st3" cx="-17.9" cy="7.5" r="2"/>
	<rect x="-28.9" y="0.1" class="st4" width="22" height="22"/>
</g>
<g>
	<path class="st1" d="M3.9,7.6C3.9,8.5,4,9.3,4.4,10c0.7,1.6,1.5,3.1,2.2,4.7c0.9,2,1.9,4,2.8,6c0.1,0.2,0.2,0.4,0.4,0.5
		c0.9,0.8,2.3,0.5,2.8-0.6c0.5-1.2,1.1-2.3,1.6-3.5c0.9-2,1.8-3.9,2.8-5.8c0.3-0.6,0.6-1.1,0.8-1.7c0.4-1.2,0.4-2.5,0.1-3.8
		c-0.4-1.9-1.6-3.4-3.2-4.4c-1.6-1-3.4-1.3-5.3-0.9C7.6,0.9,6.2,2,5.1,3.5C4.3,4.7,3.9,6,3.9,7.6z"/>
	<circle class="st5" cx="11" cy="7.3" r="3.6"/>
	<circle class="st3" cx="11" cy="7.3" r="2"/>
	<rect x="0" y="0" class="st4" width="22" height="22"/>
</g>
<g class="st0">
	<g>
		<path class="st1" d="M-25,33.9c0,0.9,0.1,1.7,0.5,2.4c0.7,1.6,1.5,3.1,2.2,4.7c0.9,2,1.9,4,2.8,6c0.1,0.2,0.2,0.4,0.4,0.5
			c0.9,0.8,2.3,0.5,2.8-0.6c0.5-1.2,1.1-2.3,1.6-3.5c0.9-1.9,1.8-3.9,2.7-5.8c0.3-0.6,0.6-1.1,0.8-1.7c0.4-1.2,0.4-2.5,0.1-3.8
			c-0.4-1.9-1.6-3.4-3.2-4.4c-1.6-1-3.4-1.3-5.3-0.9c-1.9,0.4-3.3,1.5-4.4,3C-24.7,31-25.1,32.4-25,33.9z"/>
		<g>
			<line class="st6" x1="-21.9" y1="33.9" x2="-13.9" y2="33.9"/>
			<path class="st2" d="M-15,31.9h-2.6h-0.6h-2.6c-0.4,0-0.7,0.4-0.5,0.8c0.1,0.1,0.1,0.3,0.1,0.4v3.3c0,0.6,0.5,1.2,1.2,1.2h1.8
				h0.6h1.8c0.6,0,1.2-0.5,1.2-1.2v-3.3c0-0.2,0-0.3,0.1-0.4C-14.3,32.3-14.6,31.9-15,31.9z"/>
			<g>
				<path class="st7" d="M-17.1,31.1c0-0.4-0.3-0.7-0.7-0.7c-0.4,0-0.7,0.3-0.7,0.7"/>
				<line class="st8" x1="-21.1" y1="31.3" x2="-14.6" y2="31.3"/>
			</g>
		</g>
	</g>
	<rect x="-28.9" y="26.3" class="st4" width="22" height="22"/>
</g>
</svg>
