<?xml version="1.0" encoding="utf-8"?>
<!-- Generator: Adobe Illustrator 22.0.1, SVG Export Plug-In . SVG Version: 6.00 Build 0)  -->
<svg version="1.1" id="Layer_1" xmlns="http://www.w3.org/2000/svg" xmlns:xlink="http://www.w3.org/1999/xlink" x="0px" y="0px"
	 viewBox="0 0 25 25" style="enable-background:new 0 0 25 25;" xml:space="preserve">
<style type="text/css">
	.st0{opacity:0;}
	.st1{fill:#FFFFFF;stroke:#000000;stroke-miterlimit:10;}
	.st2{fill:#FFFFFF;stroke:#000000;stroke-width:0.4925;stroke-miterlimit:10;}
	.st3{fill:#00FF00;stroke:#000000;stroke-width:0.5;stroke-miterlimit:10;}
	.st4{fill:#FFFFFF;stroke:#000000;stroke-width:0.5;stroke-miterlimit:10;}
	.st5{fill:none;}
	.st6{fill:none;stroke:#000000;stroke-width:0.7983;stroke-linecap:round;stroke-linejoin:round;}
	.st7{fill:#FFFF00;stroke:#000000;stroke-width:0.5;stroke-miterlimit:10;}
	.st8{fill:none;stroke:#000000;stroke-width:0.5;}
	.st9{fill:none;stroke:#000000;stroke-width:0.5;stroke-linecap:round;stroke-linejoin:round;}
</style>
<g class="st0">
	<path class="st1" d="M-23.5,9.2c0,0.9,0.1,1.7,0.5,2.4c0.7,1.6,1.5,3.1,2.2,4.7c0.9,2,1.9,4,2.8,6c0.1,0.2,0.2,0.4,0.4,0.5
		c0.9,0.8,2.3,0.5,2.8-0.6c0.5-1.2,1.1-2.3,1.6-3.5c0.9-2,1.8-3.9,2.8-5.8c0.3-0.6,0.6-1.1,0.8-1.7c0.4-1.2,0.4-2.5,0.1-3.8
		C-9.9,5.5-11,4-12.7,3c-1.6-1-3.4-1.3-5.3-0.9c-1.9,0.4-3.3,1.5-4.4,3C-23.2,6.3-23.6,7.6-23.5,9.2z"/>
	<path class="st2" d="M-23.1,9.6c0,0.9,0.1,1.7,0.5,2.4c0.7,1.6,1.5,3.1,2.2,4.7c0.9,2,1.9,4,2.8,6c0.1,0.2,0.2,0.4,0.4,0.5
		c0.9,0.8,2.3,0.5,2.8-0.6c0.5-1.2,1.1-2.3,1.6-3.5c0.9-2,1.8-3.9,2.8-5.8c0.3-0.6,0.6-1.1,0.8-1.7c0.4-1.2,0.4-2.5,0.1-3.8
		c-0.4-1.9-1.6-3.4-3.2-4.4c-1.6-1-3.4-1.3-5.3-0.9c-1.9,0.4-3.3,1.5-4.4,3C-22.7,6.7-23.1,8-23.1,9.6z"/>
	<circle class="st3" cx="-16" cy="9.3" r="3.6"/>
	<circle class="st4" cx="-16" cy="9.3" r="2"/>
	<rect x="-28.9" y="0.1" class="st5" width="24.9" height="24.9"/>
</g>
<g class="st0">
	<rect x="-28.9" y="26.3" class="st5" width="24.9" height="24.9"/>
	<path class="st1" d="M-23.4,34.9c0,0.9,0.1,1.7,0.5,2.4c0.7,1.6,1.5,3.1,2.2,4.7c0.9,2,1.9,4,2.8,6c0.1,0.2,0.2,0.4,0.4,0.5
		c0.9,0.8,2.3,0.5,2.8-0.6c0.5-1.2,1.1-2.3,1.6-3.5c0.9-2,1.8-3.9,2.8-5.8c0.3-0.6,0.6-1.1,0.8-1.7c0.4-1.2,0.4-2.5,0.1-3.8
		c-0.4-1.9-1.6-3.4-3.2-4.4c-1.6-1-3.4-1.3-5.3-0.9c-1.9,0.4-3.3,1.5-4.4,3C-23.1,32.1-23.4,33.4-23.4,34.9z"/>
	<path class="st2" d="M-23,35.3c0,0.9,0.1,1.7,0.5,2.4c0.7,1.6,1.5,3.1,2.2,4.7c0.9,2,1.9,4,2.8,6c0.1,0.2,0.2,0.4,0.4,0.5
		c0.9,0.8,2.3,0.5,2.8-0.6c0.5-1.2,1.1-2.3,1.6-3.5c0.9-2,1.8-3.9,2.8-5.8c0.3-0.6,0.6-1.1,0.8-1.7c0.4-1.2,0.4-2.5,0.1-3.8
		c-0.4-1.9-1.6-3.4-3.2-4.4c-1.6-1-3.4-1.3-5.3-0.9c-1.9,0.4-3.3,1.5-4.4,3C-22.6,32.4-23,33.8-23,35.3z"/>
	<line class="st6" x1="-20" y1="34.6" x2="-12" y2="34.6"/>
	<path class="st7" d="M-13.1,32.6h-2.6h-0.6h-2.5c-0.4,0-0.7,0.5-0.5,0.8c0.1,0.1,0.1,0.3,0.1,0.4v3.3c0,0.6,0.5,1.2,1.2,1.2h1.8
		h0.6h1.8c0.6,0,1.2-0.5,1.2-1.2v-3.2c0-0.2,0-0.3,0.1-0.4C-12.4,33.1-12.7,32.6-13.1,32.6z"/>
	<g>
		<path class="st8" d="M-15.2,31.7c0-0.4-0.3-0.7-0.7-0.7s-0.7,0.3-0.7,0.7"/>
		<line class="st9" x1="-19.2" y1="31.8" x2="-12.7" y2="31.8"/>
	</g>
</g>
<g>
	<path class="st1" d="M5.1,9.2c0,0.9,0.1,1.7,0.5,2.4c0.7,1.6,1.5,3.1,2.2,4.7c0.9,2,1.9,4,2.8,6c0.1,0.2,0.2,0.4,0.4,0.5
		c0.9,0.8,2.3,0.5,2.8-0.6c0.5-1.2,1.1-2.3,1.6-3.5c0.9-2,1.8-3.9,2.8-5.8c0.3-0.6,0.6-1.1,0.8-1.7c0.4-1.2,0.4-2.5,0.1-3.8
		C18.7,5.5,17.6,4,16,3c-1.6-1-3.4-1.3-5.3-0.9c-1.9,0.4-3.3,1.5-4.4,3C5.4,6.3,5.1,7.6,5.1,9.2z"/>
	<circle class="st4" cx="12.2" cy="9" r="2.8"/>
	<path class="st2" d="M5.5,9.6c0,0.9,0.1,1.7,0.5,2.4c0.7,1.6,1.5,3.1,2.2,4.7c0.9,2,1.9,4,2.8,6c0.1,0.2,0.2,0.4,0.4,0.5
		c0.9,0.8,2.3,0.5,2.8-0.6c0.5-1.2,1.1-2.3,1.6-3.5c0.9-2,1.8-3.9,2.8-5.8c0.3-0.6,0.6-1.1,0.8-1.7c0.4-1.2,0.4-2.5,0.1-3.8
		c-0.4-1.9-1.6-3.4-3.2-4.4c-1.6-1-3.4-1.3-5.3-0.9C9.2,2.9,7.8,4,6.7,5.5C5.9,6.7,5.5,8,5.5,9.6z"/>
	<circle class="st7" cx="12.7" cy="9.3" r="3.6"/>
	<circle class="st4" cx="12.7" cy="9.3" r="2"/>
	<rect x="-0.1" y="0.1" class="st5" width="24.9" height="24.9"/>
	<rect x="0" y="0" class="st5" width="24.9" height="24.9"/>
</g>
</svg>
