<?xml version="1.0" encoding="utf-8"?>
<!-- Generator: Adobe Illustrator 22.0.1, SVG Export Plug-In . SVG Version: 6.00 Build 0)  -->
<svg version="1.1" id="Layer_1" xmlns="http://www.w3.org/2000/svg" xmlns:xlink="http://www.w3.org/1999/xlink" x="0px" y="0px"
	 viewBox="0 0 22 22" style="enable-background:new 0 0 22 22;" xml:space="preserve">
<style type="text/css">
	.st0{fill:#FFFFFF;stroke:#000000;stroke-width:0.4925;stroke-miterlimit:10;}
	.st1{fill:#FFFF00;stroke:#000000;stroke-width:0.3073;stroke-miterlimit:10;}
	.st2{fill:#FFFFFF;stroke:#000000;stroke-width:0.3073;stroke-miterlimit:10;}
	.st3{fill:none;}
	.st4{opacity:0;}
	.st5{fill:#00FF00;stroke:#000000;stroke-width:0.3073;stroke-miterlimit:10;}
	.st6{fill:none;stroke:#000000;stroke-width:0.7983;stroke-linecap:round;stroke-linejoin:round;}
	.st7{fill:none;stroke:#000000;stroke-width:0.4925;}
	.st8{fill:none;stroke:#000000;stroke-width:0.4925;stroke-linecap:round;stroke-linejoin:round;}
</style>
<g>
	<path class="st0" d="M3.9,7.6C3.9,8.5,4,9.3,4.4,10c0.7,1.6,1.5,3.1,2.2,4.7c0.9,2,1.9,4,2.8,6c0.1,0.2,0.2,0.4,0.4,0.5
		c0.9,0.8,2.3,0.5,2.8-0.6c0.5-1.2,1.1-2.3,1.6-3.5c0.9-2,1.8-3.9,2.8-5.8c0.3-0.6,0.6-1.1,0.8-1.7c0.4-1.2,0.4-2.5,0.1-3.8
		c-0.4-1.9-1.6-3.4-3.2-4.4c-1.6-1-3.4-1.3-5.3-0.9C7.6,0.9,6.1,2,5,3.6C4.2,4.7,3.9,6.1,3.9,7.6z"/>
	<circle class="st1" cx="11" cy="7.4" r="3.6"/>
	<circle class="st2" cx="11" cy="7.4" r="2"/>
	<rect x="0" y="0" class="st3" width="22" height="22"/>
</g>
<g class="st4">
	<path class="st0" d="M32.8,7.5c0,0.9,0.1,1.7,0.5,2.4c0.7,1.6,1.5,3.1,2.2,4.7c0.9,2,1.9,4,2.8,6c0.1,0.2,0.2,0.4,0.4,0.5
		c0.9,0.8,2.3,0.5,2.8-0.6c0.5-1.2,1.1-2.3,1.6-3.5c0.9-2,1.8-3.9,2.8-5.8c0.3-0.6,0.6-1.1,0.8-1.7c0.4-1.2,0.4-2.5,0.1-3.8
		c-0.4-1.9-1.6-3.4-3.2-4.4c-1.6-1-3.4-1.3-5.3-0.9c-1.9,0.4-3.3,1.5-4.4,3C33.2,4.6,32.8,5.9,32.8,7.5z"/>
	<circle class="st5" cx="40" cy="7.3" r="3.6"/>
	<circle class="st2" cx="40" cy="7.3" r="2"/>
	<rect x="28.9" y="-0.1" class="st3" width="22" height="22"/>
</g>
<g class="st4">
	<g>
		<path class="st0" d="M3.9,33.8c0,0.9,0.1,1.7,0.5,2.4c0.7,1.6,1.5,3.1,2.2,4.7c0.9,2,1.9,4,2.8,6c0.1,0.2,0.2,0.4,0.4,0.5
			c0.9,0.8,2.3,0.5,2.8-0.6c0.5-1.2,1.1-2.3,1.6-3.5c0.9-1.9,1.8-3.9,2.7-5.8c0.3-0.6,0.6-1.1,0.8-1.7c0.4-1.2,0.4-2.5,0.1-3.8
			c-0.4-1.9-1.6-3.4-3.2-4.4c-1.6-1-3.4-1.3-5.3-0.9c-1.9,0.4-3.3,1.5-4.4,3C4.2,31,3.9,32.3,3.9,33.8z"/>
		<g>
			<line class="st6" x1="7" y1="33.8" x2="15" y2="33.8"/>
			<path class="st1" d="M13.9,31.8h-2.6h-0.6H8.2c-0.4,0-0.7,0.4-0.5,0.8c0.1,0.1,0.1,0.3,0.1,0.4v3.3c0,0.6,0.5,1.2,1.2,1.2h1.8
				h0.6h1.8c0.6,0,1.2-0.5,1.2-1.2V33c0-0.2,0-0.3,0.1-0.4C14.6,32.2,14.3,31.8,13.9,31.8z"/>
			<g>
				<path class="st7" d="M11.8,31.1c0-0.4-0.3-0.7-0.7-0.7c-0.4,0-0.7,0.3-0.7,0.7"/>
				<line class="st8" x1="7.8" y1="31.2" x2="14.3" y2="31.2"/>
			</g>
		</g>
	</g>
	<rect x="0" y="26.3" class="st3" width="22" height="22"/>
</g>
</svg>
