<?xml version="1.0" encoding="utf-8"?>
<!-- Generator: Adobe Illustrator 22.0.1, SVG Export Plug-In . SVG Version: 6.00 Build 0)  -->
<svg version="1.1" id="Layer_1" xmlns="http://www.w3.org/2000/svg" xmlns:xlink="http://www.w3.org/1999/xlink" x="0px" y="0px"
	 viewBox="0 0 453 56" style="enable-background:new 0 0 453 56;" xml:space="preserve">
<style type="text/css">
	.st0{fill:#A2D888;}
	.st1{fill:none;stroke:#FFFFFF;stroke-width:6;stroke-miterlimit:10;}
	.st2{fill:none;stroke:#FFFFFF;stroke-width:3;stroke-miterlimit:10;}
	.st3{fill:#FFFFFF;stroke:#FFFFFF;stroke-width:3;stroke-miterlimit:10;}
	.st4{fill:none;stroke:#A2D888;stroke-width:3;stroke-miterlimit:10;}
	.st5{fill:#FFFFFF;}
	.st6{fill:none;}
</style>
<rect x="-0.1" class="st0" width="453.3" height="55.9"/>
<line class="st1" x1="339.4" y1="52.7" x2="418.3" y2="52.7"/>
<path class="st2" d="M83.8,25.5c-0.1,2.4-0.8,4.7-1.9,6.9c-1.5,3.1-3.6,5.9-6,8.6c-1.3,1.4-2.7,2.8-4.3,4c-0.7,0.5-0.5,0.5-1.2,0
	c-2-1.6-3.7-3.4-5.3-5.3c-2.2-2.6-4.1-5.4-5.4-8.4c-0.9-2-1.4-4.1-1.3-6.2c0.2-4.7,4.1-8.8,9.5-9.9c7-1.5,14.1,2.1,15.6,8.1
	C83.6,23.9,83.7,24.7,83.8,25.5z M71,19.1c-4.1,0-7.5,2.8-7.5,6.2c0,3.5,3.3,6.3,7.4,6.3s7.5-2.8,7.5-6.2C78.5,22,75.1,19.2,71,19.1
	z"/>
<path class="st2" d="M164.2,20c0,0.7-0.6,1.3-1.3,1.3h-3.1c-0.7,0-1.3-0.6-1.3-1.3v-3c0-0.7,0.6-1.3,1.3-1.3h3.1
	c0.7,0,1.3,0.6,1.3,1.3V20z"/>
<path class="st2" d="M164.2,31c0,0.7-0.6,1.3-1.3,1.3h-3.1c-0.7,0-1.3-0.6-1.3-1.3v-2.9c0-0.7,0.6-1.3,1.3-1.3h3.1
	c0.7,0,1.3,0.6,1.3,1.3V31z"/>
<path class="st2" d="M164.2,42c0,0.7-0.6,1.3-1.3,1.3h-3.1c-0.7,0-1.3-0.6-1.3-1.3v-2.9c0-0.7,0.6-1.3,1.3-1.3h3.1
	c0.7,0,1.3,0.6,1.3,1.3V42z"/>
<line class="st2" x1="170.7" y1="29.4" x2="189.1" y2="29.4"/>
<line class="st2" x1="170.5" y1="18.6" x2="188.9" y2="18.6"/>
<line class="st2" x1="170.5" y1="40.6" x2="188.9" y2="40.6"/>
<circle class="st3" cx="379.3" cy="29.6" r="15.2"/>
<g>
	<line class="st4" x1="378.5" y1="20.6" x2="378.5" y2="38.5"/>
	<line class="st4" x1="388.2" y1="29.6" x2="370.4" y2="29.6"/>
</g>
<path class="st2" d="M276.4,39.1c-5.2,0-10.4,0-15.6,0c-0.9,0-1-0.1-0.9-1c0.2-3,1.5-5.6,3.4-7.9c7.3-8.6,21-7.9,27.3,1.4
	c1.4,2,2.2,4.3,2.3,6.7c0,0.6-0.1,0.8-0.7,0.8C286.9,39.1,281.6,39.1,276.4,39.1z"/>
<path class="st5" d="M281.5,15.4c-0.1-0.1-0.2-0.5-0.4-0.7c-0.2-0.2-0.5-0.4-0.7-0.6c-0.8-0.5-1.2-1.2-1.2-2.2
	c0.1-1,0.6-1.6,1.4-2.1c0.3-0.2,0.6-0.1,0.7,0.2s0.1,0.6-0.2,0.7c-0.2,0.1-0.4,0.2-0.5,0.4c-0.5,0.6-0.5,1.3,0.1,1.8
	c0.3,0.2,0.6,0.4,0.8,0.6c1.5,1.1,1.3,3.1-0.2,4.1c-0.4,0.2-0.7,0.2-0.9-0.1c-0.2-0.3-0.1-0.6,0.3-0.8
	C281.2,16.6,281.5,16.2,281.5,15.4z"/>
<path class="st5" d="M276,14.2c0,0-0.1,0-0.2-0.1c-0.7-0.5-1.2-1.2-1.1-2.1c0-1,0.5-1.6,1.4-2.1c0.3-0.2,0.6-0.1,0.8,0.2
	c0.2,0.3,0.1,0.6-0.3,0.8c-1.1,0.7-1.1,1.7-0.1,2.4c0.3,0.2,0.6,0.4,0.9,0.7c1.2,1.2,0.7,3-0.7,3.8c-0.3,0.2-0.6,0.1-0.7-0.2
	c-0.2-0.3-0.1-0.5,0.2-0.7c0.1-0.1,0.3-0.2,0.4-0.3c0.7-0.6,0.7-1.4-0.1-2C276.3,14.5,276.2,14.3,276,14.2z"/>
<path class="st5" d="M271.7,18c-0.2-0.1-0.4-0.3-0.4-0.4c0-0.2,0.1-0.4,0.2-0.6c0.2-0.2,0.4-0.3,0.6-0.5c0.4-0.5,0.4-1.1-0.1-1.6
	c-0.2-0.2-0.4-0.6-0.5-0.6c-0.4,0-0.5-0.2-0.7-0.4c-1.2-1.1-0.9-3.2,0.7-3.9c0.3-0.1,0.6-0.1,0.8,0.2c0.2,0.3,0,0.5-0.3,0.8
	c-0.2,0.1-0.4,0.3-0.6,0.5c-0.4,0.5-0.3,1.2,0.2,1.7c0.3,0.2,0.6,0.4,0.9,0.7c1.4,1.1,1.4,3-0.2,4C272.1,17.8,271.9,17.9,271.7,18z"
	/>
<line class="st2" x1="257.6" y1="43.8" x2="295.4" y2="43.8"/>
<line class="st2" x1="273.5" y1="21.2" x2="279.2" y2="21.2"/>
<rect y="-147.7" class="st6" width="226.4" height="99.3"/>
</svg>
