<?xml version="1.0" encoding="utf-8"?>
<!-- Generator: Adobe Illustrator 22.0.1, SVG Export Plug-In . SVG Version: 6.00 Build 0)  -->
<svg version="1.1" xmlns="http://www.w3.org/2000/svg" xmlns:xlink="http://www.w3.org/1999/xlink" x="0px" y="0px"
	 viewBox="0 0 130 130" style="enable-background:new 0 0 130 130;" xml:space="preserve">
<style type="text/css">
	.st0{fill:#36930A;}
</style>
<g id="Layer_1">
	<g>
		<g>
			<path class="st0" d="M562.4,903.3c-10.2-0.7-20.2-1.1-30.1-2.1c-4.9-0.5-9.7-2.1-14.6-3.4c-1.4-0.4-3.1-1.1-3.2-2.8
				c0-1.8,1.7-2.4,3.1-2.9c5.5-2.3,11.4-3.1,17.2-3.8c12.2-1.4,24.5-1.6,36.7-1c8.1,0.4,16.2,1.5,24.3,2.6c2.8,0.4,5.5,1.6,8.2,2.7
				c0.9,0.4,2,1.5,1.9,2.3c-0.1,0.9-1.1,2.1-2,2.4c-4.4,1.4-8.8,3-13.4,3.6C581.2,902,571.7,902.5,562.4,903.3z"/>
			<path class="st0" d="M527.6,903.8c21.8,2.9,43.6,3.2,65.4,0c0.1,0.1,0.2,0.3,0.4,0.4c-1,1-1.9,2.1-3.1,2.8
				c-4,2.6-8.6,3.8-13.2,4.6c-12.1,2-24.1,2.2-36.1-0.6c-3.6-0.9-7.1-2.5-10.6-4c-1.2-0.5-2.1-1.8-3.1-2.8
				C527.4,904.1,527.5,903.9,527.6,903.8z"/>
			<path class="st0" d="M564.7,877.7c0.9-1.4,1.6-2.3,2.1-3.3c3.2-5.4,2.6-10.2-2.1-14.5c-2.3-2.1-4.8-3.9-6.9-6.1
				c-1.6-1.7-3-3.8-3.9-6c-1.6-3.5-0.9-7,1.5-10c2.2-2.8,5.2-4.4,8.8-5.5c-1,1.5-2,2.7-2.7,4c-2.2,3.8-2.1,7.2,0.8,10.5
				c1.8,2.1,4.2,3.7,6.2,5.8c2.2,2.2,4.4,4.5,6,7.1c2.3,3.8,1.9,7.9-0.7,11.6C571.7,874.5,568.6,876.3,564.7,877.7z"/>
			<path class="st0" d="M550.9,854c0,0.2,0,0.3-0.1,0.3c-4.2,5.3-2.2,8.3,1.9,11.8c1.7,1.5,3.5,3,4.8,4.9c3.2,4.8,0.2,11.1-5.7,12.1
				c0.6-1,1.1-1.9,1.6-2.8c1.3-2.8,1-5.4-1.2-7.6c-1.4-1.5-3.1-2.7-4.6-4.1c-2.1-2-3.8-4.2-3.7-7.4
				C544.2,857.8,546.8,855.2,550.9,854z"/>
		</g>
	</g>
</g>
<g id="Layer_2">
	<g>
		<ellipse class="st0" cx="65" cy="96.6" rx="65" ry="11.6"/>
		<path class="st0" d="M71.3,72c1.3-2,2.2-3.3,3-4.7c4.6-7.7,3.7-14.5-3-20.6c-3.2-3-6.8-5.5-9.8-8.7c-2.3-2.5-4.2-5.4-5.6-8.5
			c-2.2-5-1.3-9.9,2.2-14.2c3.2-3.9,7.3-6.3,12.5-7.8c-1.5,2.1-2.8,3.9-3.9,5.7c-3.1,5.4-2.9,10.3,1.2,15c2.6,3,6,5.3,8.8,8.2
			c3.1,3.2,6.3,6.4,8.6,10.1c3.3,5.4,2.8,11.2-1,16.4C81.3,67.4,76.9,70.1,71.3,72z"/>
		<path class="st0" d="M51.7,38.3c-0.1,0.3,0,0.4-0.1,0.5c-6,7.6-3.1,11.9,2.7,16.8c2.5,2.1,5,4.3,6.8,6.9
			c4.5,6.8,0.2,15.8-8.1,17.2c0.8-1.4,1.6-2.6,2.3-4c1.9-4,1.4-7.7-1.7-10.9c-2-2.1-4.4-3.8-6.5-5.8c-3-2.8-5.5-6-5.2-10.5
			C42.1,43.7,45.8,40,51.7,38.3z"/>
		<path class="st0" d="M65.3,112.4c-18.8,0-35.7-1.4-46.8-3.6c2.6,7.7,22.5,13.6,46.7,13.6c24.1,0,44-5.9,46.7-13.6
			C100.6,111,83.9,112.4,65.3,112.4z"/>
	</g>
</g>
</svg>
