<?xml version="1.0" encoding="utf-8"?>
<!-- Generator: Adobe Illustrator 22.0.1, SVG Export Plug-In . SVG Version: 6.00 Build 0)  -->
<svg version="1.1" id="Layer_1" xmlns="http://www.w3.org/2000/svg" xmlns:xlink="http://www.w3.org/1999/xlink" x="0px" y="0px"
	 viewBox="0 0 16 16" style="enable-background:new 0 0 16 16;" xml:space="preserve">
<style type="text/css">
	.st0{fill:#F75C06;}
</style>
<g>
	<g>
		<path class="st0" d="M11.2,3.5c0.1,0,0.1,0.1,0.2,0.1c0,0,0,0,0,0c-0.6,0.8-1.1,1.5-1.7,2.3C9.6,6,9.5,6.1,9.5,6.2
			c0,0.1-0.1,0.1-0.1,0c0,0,0,0,0-0.1c0.3-0.5,0.7-1,1-1.4C10.6,4.3,10.9,3.9,11.2,3.5C11.2,3.5,11.2,3.5,11.2,3.5z"/>
		<path class="st0" d="M11.5,3.6c-0.1,0-0.1-0.1-0.2-0.1c0.4-0.5,0.7-1,1.1-1.5C12.4,2,12.5,2,12.6,2.1C12.2,2.6,11.8,3.1,11.5,3.6z
			"/>
		<path class="st0" d="M12.3,1.9c0.1-0.1,0.2-0.3,0.3-0.4c0.1,0.1,0.2,0.1,0.2,0.2c-0.1,0.1-0.2,0.3-0.3,0.4
			C12.5,2,12.4,1.9,12.3,1.9z"/>
	</g>
	<g>
		<path class="st0" d="M8.1,13.6c-0.1,0-0.2,0-0.2,0c0,0,0,0,0-0.1c0-0.9,0-1.9,0-2.8c0-0.1,0-0.3,0-0.4c0-0.1,0-0.1,0.1-0.1
			c0.1,0,0.1,0,0.1,0.1c0,0.6,0,1.2,0,1.7C8.1,12.5,8.1,13,8.1,13.6C8.1,13.5,8.1,13.5,8.1,13.6z"/>
		<path class="st0" d="M7.9,13.6c0.1,0,0.2,0,0.2,0c0,0.6,0,1.2,0,1.8c-0.1,0-0.2,0-0.3,0C7.8,14.8,7.8,14.2,7.9,13.6z"/>
		<path class="st0" d="M8.1,15.5c0,0.2,0,0.3,0,0.5c-0.1,0-0.2,0-0.3,0c0-0.2,0-0.3,0-0.5C7.9,15.5,8,15.5,8.1,15.5z"/>
	</g>
	<path class="st0" d="M2.7,9.9c0-0.1,0-0.2-0.1-0.2c0,0,0,0,0.1,0C3.6,9.3,4.5,9,5.4,8.8c0.1,0,0.2-0.1,0.4-0.1c0.1,0,0.1,0,0.1,0
		c0,0.1,0,0.1-0.1,0.1C5.2,9,4.7,9.2,4.1,9.4C3.7,9.5,3.2,9.7,2.7,9.9C2.7,9.8,2.7,9.8,2.7,9.9z"/>
	<path class="st0" d="M2.6,9.6c0,0.1,0,0.2,0.1,0.2c-0.6,0.2-1.1,0.4-1.7,0.6c0-0.1-0.1-0.2-0.1-0.3C1.4,10,2,9.8,2.6,9.6z"/>
	<path class="st0" d="M0.9,10.5c-0.2,0.1-0.3,0.1-0.5,0.2c0-0.1-0.1-0.2-0.1-0.3c0.2-0.1,0.3-0.1,0.5-0.2
		C0.8,10.3,0.9,10.4,0.9,10.5z"/>
	<g>
		<path class="st0" d="M13.3,9.6c0,0.1,0,0.2-0.1,0.2c0,0,0,0-0.1,0c-0.9-0.3-1.8-0.6-2.7-0.9c-0.1,0-0.2-0.1-0.4-0.1
			c-0.1,0-0.1,0-0.1-0.1c0-0.1,0-0.1,0.1,0c0.6,0.2,1.1,0.3,1.7,0.5C12.3,9.3,12.8,9.4,13.3,9.6C13.3,9.6,13.3,9.6,13.3,9.6z"/>
		<path class="st0" d="M13.3,9.8c0-0.1,0-0.2,0.1-0.2c0.6,0.2,1.2,0.3,1.8,0.5c0,0.1-0.1,0.2-0.1,0.3C14.4,10.2,13.9,10,13.3,9.8z"
			/>
		<path class="st0" d="M15.2,10.1c0.2,0,0.3,0.1,0.5,0.1c0,0.1-0.1,0.2-0.1,0.3c-0.2,0-0.3-0.1-0.5-0.1
			C15.1,10.3,15.1,10.2,15.2,10.1z"/>
	</g>
	<g>
		<path class="st0" d="M4.6,3.5c0.1,0,0.1-0.1,0.2-0.1c0,0,0,0,0,0C5.3,4.2,5.9,5,6.4,5.7c0.1,0.1,0.1,0.2,0.2,0.3
			c0,0.1,0,0.1,0,0.1c0,0-0.1,0-0.1,0C6.2,5.7,5.8,5.2,5.5,4.7C5.2,4.4,4.9,4,4.6,3.5C4.6,3.6,4.6,3.6,4.6,3.5z"/>
		<path class="st0" d="M4.7,3.3c-0.1,0-0.1,0.1-0.2,0.1C4.2,3,3.8,2.5,3.4,2C3.5,2,3.6,1.9,3.7,1.9C4,2.4,4.4,2.8,4.7,3.3z"/>
		<path class="st0" d="M3.4,2C3.3,1.9,3.2,1.7,3.1,1.6c0.1-0.1,0.2-0.1,0.2-0.2c0.1,0.1,0.2,0.3,0.3,0.4C3.6,1.9,3.5,1.9,3.4,2z"/>
	</g>
	<ellipse class="st0" cx="11.4" cy="12.8" rx="2.2" ry="2.2"/>
	<ellipse class="st0" cx="11.4" cy="12.8" rx="1.4" ry="1.4"/>
	<ellipse class="st0" cx="13.5" cy="6.3" rx="2.2" ry="2.2"/>
	<ellipse class="st0" cx="13.5" cy="6.3" rx="1.4" ry="1.4"/>
	<ellipse class="st0" cx="8" cy="2.2" rx="2.2" ry="2.2"/>
	<ellipse class="st0" cx="8" cy="2.2" rx="1.4" ry="1.4"/>
	<ellipse class="st0" cx="2.5" cy="6.3" rx="2.2" ry="2.2"/>
	<ellipse class="st0" cx="2.5" cy="6.3" rx="1.4" ry="1.4"/>
	<ellipse class="st0" cx="4.6" cy="12.8" rx="2.2" ry="2.2"/>
	<ellipse class="st0" cx="4.6" cy="12.8" rx="1.4" ry="1.4"/>
	<path class="st0" d="M1.1,5.9"/>
	<path class="st0" d="M8,8.1"/>
	<path class="st0" d="M3.3,14.5"/>
	<path class="st0" d="M8,8.1"/>
</g>
</svg>
