<?xml version="1.0" encoding="utf-8"?>
<!-- Generator: Adobe Illustrator 22.0.1, SVG Export Plug-In . SVG Version: 6.00 Build 0)  -->
<svg version="1.1" id="Layer_1" xmlns="http://www.w3.org/2000/svg" xmlns:xlink="http://www.w3.org/1999/xlink" x="0px" y="0px"
	 viewBox="0 0 130 130" style="enable-background:new 0 0 130 130;" xml:space="preserve">
<style type="text/css">
	.st0{fill:#36930A;}
	.st1{fill:none;stroke:#F75C06;stroke-width:10;stroke-miterlimit:10;}
</style>
<g>
	<g>
		<g>
			<ellipse class="st0" cx="66" cy="79" rx="42.4" ry="7.6"/>
			<path class="st0" d="M35.7,87.4c20.2,2.7,40.3,2.9,60.5,0c0.1,0.1,0.2,0.3,0.3,0.4c-0.9,0.9-1.8,1.9-2.9,2.6
				c-3.7,2.4-7.9,3.5-12.2,4.2C70.3,96.5,59.1,96.7,48,94c-3.4-0.8-6.6-2.3-9.8-3.7c-1.1-0.5-1.9-1.7-2.8-2.6
				C35.5,87.6,35.6,87.5,35.7,87.4z"/>
			<path class="st0" d="M70,63.3c0.8-1.3,1.4-2.2,2-3.1c3-5,2.4-9.4-1.9-13.4c-2.1-1.9-4.4-3.6-6.3-5.7c-1.5-1.6-2.8-3.5-3.6-5.5
				c-1.4-3.3-0.8-6.5,1.4-9.2c2.1-2.5,4.8-4.1,8.1-5.1c-0.9,1.4-1.8,2.5-2.5,3.7c-2,3.5-1.9,6.7,0.8,9.7c1.7,2,3.9,3.5,5.7,5.3
				c2,2.1,4.1,4.1,5.6,6.6c2.2,3.5,1.8,7.3-0.6,10.7C76.5,60.3,73.7,62,70,63.3z"/>
			<path class="st0" d="M57.3,41.3c0,0.2,0,0.3-0.1,0.3c-3.9,4.9-2,7.7,1.8,10.9c1.6,1.4,3.3,2.8,4.4,4.5c3,4.4,0.2,10.3-5.3,11.2
				c0.5-0.9,1.1-1.7,1.5-2.6c1.2-2.6,0.9-5-1.1-7.1c-1.3-1.4-2.9-2.5-4.2-3.8c-1.9-1.8-3.6-3.9-3.4-6.8
				C51.1,44.9,53.4,42.4,57.3,41.3z"/>
		</g>
	</g>
	<g>
		<circle class="st1" cx="65" cy="65.2" r="59.5"/>
		<line class="st1" x1="108.8" y1="105.3" x2="20.3" y2="23.2"/>
	</g>
</g>
</svg>
