<?xml version="1.0" encoding="utf-8"?>
<!-- Generator: Adobe Illustrator 22.0.1, SVG Export Plug-In . SVG Version: 6.00 Build 0)  -->
<svg version="1.1" xmlns="http://www.w3.org/2000/svg" xmlns:xlink="http://www.w3.org/1999/xlink" x="0px" y="0px"
	 viewBox="0 0 130 130" style="enable-background:new 0 0 130 130;" xml:space="preserve">
<style type="text/css">
	.st0{fill:#F75C06;}
</style>
<g id="Layer_1">
</g>
<g id="Layer_2">
	<g>
		<ellipse class="st0" cx="65" cy="96.6" rx="65" ry="11.6"/>
		<path class="st0" d="M71.3,72c1.3-2,2.2-3.3,3-4.7c4.6-7.7,3.7-14.5-3-20.6c-3.2-3-6.8-5.5-9.8-8.7c-2.3-2.5-4.2-5.4-5.6-8.5
			c-2.2-5-1.3-9.9,2.2-14.2c3.2-3.9,7.3-6.3,12.5-7.8c-1.5,2.1-2.8,3.9-3.9,5.7c-3.1,5.4-2.9,10.3,1.2,15c2.6,3,6,5.3,8.8,8.2
			c3.1,3.2,6.3,6.4,8.6,10.1c3.3,5.4,2.8,11.2-1,16.4C81.3,67.4,76.9,70.1,71.3,72z"/>
		<path class="st0" d="M51.7,38.3c-0.1,0.3,0,0.4-0.1,0.5c-6,7.6-3.1,11.9,2.7,16.8c2.5,2.1,5,4.3,6.8,6.9
			c4.5,6.8,0.2,15.8-8.1,17.2c0.8-1.4,1.6-2.6,2.3-4c1.9-4,1.4-7.7-1.7-10.9c-2-2.1-4.4-3.8-6.5-5.8c-3-2.8-5.5-6-5.2-10.5
			C42.1,43.7,45.8,40,51.7,38.3z"/>
		<path class="st0" d="M65.3,112.4c-18.8,0-35.7-1.4-46.8-3.6c2.6,7.7,22.5,13.6,46.7,13.6c24.1,0,44-5.9,46.7-13.6
			C100.6,111,83.9,112.4,65.3,112.4z"/>
	</g>
</g>
</svg>
