<?xml version="1.0" encoding="utf-8"?>
<!-- Generator: Adobe Illustrator 22.0.1, SVG Export Plug-In . SVG Version: 6.00 Build 0)  -->
<svg version="1.1" id="Layer_1" xmlns="http://www.w3.org/2000/svg" xmlns:xlink="http://www.w3.org/1999/xlink" x="0px" y="0px"
	 viewBox="0 0 40 40" style="enable-background:new 0 0 40 40;" xml:space="preserve">
<path d="M36.6,14.1c-0.1,3.1-1.1,6.1-2.5,9c-2,4-4.7,7.7-7.9,11.1c-1.7,1.9-3.5,3.7-5.6,5.2c-0.9,0.7-0.7,0.7-1.6,0
	c-2.6-2.1-4.9-4.4-7-6.9c-2.9-3.4-5.4-7-7.1-11C4,19,3.3,16.3,3.4,13.5c0.2-6.1,5.3-11.4,12.4-13c9.2-2,18.4,2.8,20.4,10.5
	C36.4,12,36.5,13.1,36.6,14.1z M20,5.8c-5.3,0-9.7,3.6-9.8,8.1c0,4.5,4.3,8.2,9.7,8.2c5.4,0,9.8-3.6,9.8-8C29.7,9.5,25.4,5.8,20,5.8
	z"/>
</svg>
