<?xml version="1.0" encoding="utf-8"?>
<!-- Generator: Adobe Illustrator 22.0.1, SVG Export Plug-In . SVG Version: 6.00 Build 0)  -->
<svg version="1.1" id="Layer_1" xmlns="http://www.w3.org/2000/svg" xmlns:xlink="http://www.w3.org/1999/xlink" x="0px" y="0px"
	 viewBox="0 0 130 130" style="enable-background:new 0 0 130 130;" xml:space="preserve">
<style type="text/css">
	.st0{fill:#F75C06;}
	.st1{fill:#FFFFFF;}
</style>
<g>
	<path class="st0" d="M63.8,129.3C27.6,128.5,0.2,98.4,0.5,64.4c0.3-35.9,29.3-64.2,65-64.1c34.3,0.1,64.8,29.8,64,65.8
		C128.7,101.4,99.7,129.9,63.8,129.3z"/>
	<path class="st1" d="M52.2,98.3C41.8,87.9,31.5,77.7,21.3,67.4c3.5-3.5,7.1-7.1,10.7-10.6c6.6,6.6,13.2,13.3,19.9,20.1
		c15.4-15.3,30.7-30.3,45.9-45.3c3.6,3.6,7.1,7.2,10.8,10.9C89.9,60.9,71,79.6,52.2,98.3z"/>
</g>
</svg>
