<?xml version="1.0" encoding="utf-8"?>
<!-- Generator: Adobe Illustrator 22.0.1, SVG Export Plug-In . SVG Version: 6.00 Build 0)  -->
<svg version="1.1" id="Layer_1" xmlns="http://www.w3.org/2000/svg" xmlns:xlink="http://www.w3.org/1999/xlink" x="0px" y="0px"
	 viewBox="0 0 25 25" style="enable-background:new 0 0 25 25;" xml:space="preserve">
<style type="text/css">
	.st0{opacity:0;}
	.st1{fill:#FFFFFF;stroke:#000000;stroke-miterlimit:10;}
	.st2{fill:#FFFFFF;stroke:#000000;stroke-width:0.4925;stroke-miterlimit:10;}
	.st3{fill:#00FF00;stroke:#000000;stroke-width:0.5;stroke-miterlimit:10;}
	.st4{fill:#FFFFFF;stroke:#000000;stroke-width:0.5;stroke-miterlimit:10;}
	.st5{fill:none;}
	.st6{fill:#FFFF00;stroke:#000000;stroke-width:0.5;stroke-miterlimit:10;}
	.st7{fill:none;stroke:#000000;stroke-width:0.7983;stroke-linecap:round;stroke-linejoin:round;}
	.st8{fill:none;stroke:#000000;stroke-width:0.5;}
	.st9{fill:none;stroke:#000000;stroke-width:0.5;stroke-linecap:round;stroke-linejoin:round;}
</style>
<g class="st0">
	<path class="st1" d="M5.4,9.1c0,0.9,0.1,1.7,0.5,2.4c0.7,1.6,1.5,3.1,2.2,4.7c0.9,2,1.9,4,2.8,6c0.1,0.2,0.2,0.4,0.4,0.5
		c0.9,0.8,2.3,0.5,2.8-0.6c0.5-1.2,1.1-2.3,1.6-3.5c0.9-2,1.8-3.9,2.8-5.8c0.3-0.6,0.6-1.1,0.8-1.7c0.4-1.2,0.4-2.5,0.1-3.8
		C19,5.4,17.9,4,16.2,2.9c-1.6-1-3.4-1.3-5.3-0.9c-1.9,0.4-3.3,1.5-4.4,3C5.7,6.2,5.4,7.6,5.4,9.1z"/>
	<path class="st2" d="M5.8,9.5c0,0.9,0.1,1.7,0.5,2.4C7,13.5,7.8,15,8.5,16.6c0.9,2,1.9,4,2.8,6c0.1,0.2,0.2,0.4,0.4,0.5
		c0.9,0.8,2.3,0.5,2.8-0.6c0.5-1.2,1.1-2.3,1.6-3.5c0.9-2,1.8-3.9,2.8-5.8c0.3-0.6,0.6-1.1,0.8-1.7c0.4-1.2,0.4-2.5,0.1-3.8
		c-0.4-1.9-1.6-3.4-3.2-4.4c-1.6-1-3.4-1.3-5.3-0.9C9.5,2.8,8.1,3.9,7,5.4C6.2,6.6,5.8,7.9,5.8,9.5z"/>
	<circle class="st3" cx="13" cy="9.3" r="3.6"/>
	<circle class="st4" cx="13" cy="9.3" r="2"/>
	<rect x="0.1" y="0" class="st5" width="24.9" height="24.9"/>
</g>
<g class="st0">
	<path class="st1" d="M34,9.1c0,0.9,0.1,1.7,0.5,2.4c0.7,1.6,1.5,3.1,2.2,4.7c0.9,2,1.9,4,2.8,6c0.1,0.2,0.2,0.4,0.4,0.5
		c0.9,0.8,2.3,0.5,2.8-0.6c0.5-1.2,1.1-2.3,1.6-3.5c0.9-2,1.8-3.9,2.8-5.8c0.3-0.6,0.6-1.1,0.8-1.7c0.4-1.2,0.4-2.5,0.1-3.8
		c-0.4-1.9-1.6-3.4-3.2-4.4c-1.6-1-3.4-1.3-5.3-0.9c-1.9,0.4-3.3,1.5-4.4,3C34.3,6.2,34,7.6,34,9.1z"/>
	<circle class="st4" cx="41.1" cy="8.9" r="2.8"/>
	<path class="st2" d="M34.4,9.5c0,0.9,0.1,1.7,0.5,2.4c0.7,1.6,1.5,3.1,2.2,4.7c0.9,2,1.9,4,2.8,6c0.1,0.2,0.2,0.4,0.4,0.5
		c0.9,0.8,2.3,0.5,2.8-0.6c0.5-1.2,1.1-2.3,1.6-3.5c0.9-2,1.8-3.9,2.8-5.8c0.3-0.6,0.6-1.1,0.8-1.7c0.4-1.2,0.4-2.5,0.1-3.8
		c-0.4-1.9-1.6-3.4-3.2-4.4c-1.6-1-3.4-1.3-5.3-0.9c-1.9,0.4-3.3,1.5-4.4,3C34.8,6.6,34.4,7.9,34.4,9.5z"/>
	<circle class="st6" cx="41.6" cy="9.3" r="3.6"/>
	<circle class="st4" cx="41.6" cy="9.3" r="2"/>
	<rect x="30.6" y="1.9" class="st5" width="22" height="22"/>
</g>
<g>
	<rect x="0" y="26.2" class="st5" width="24.9" height="24.9"/>
	<path class="st1" d="M5.5,34.9c0,0.9,0.1,1.7,0.5,2.4c0.7,1.6,1.5,3.1,2.2,4.7c0.9,2,1.9,4,2.8,6c0.1,0.2,0.2,0.4,0.4,0.5
		c0.9,0.8,2.3,0.5,2.8-0.6c0.5-1.2,1.1-2.3,1.6-3.5c0.9-2,1.8-3.9,2.8-5.8c0.3-0.6,0.6-1.1,0.8-1.7c0.4-1.2,0.4-2.5,0.1-3.8
		c-0.4-1.9-1.6-3.4-3.2-4.4c-1.6-1-3.4-1.3-5.3-0.9c-1.9,0.4-3.3,1.5-4.4,3C5.8,32,5.5,33.3,5.5,34.9z"/>
	<path class="st2" d="M5.9,35.2c0,0.9,0.1,1.7,0.5,2.4c0.7,1.6,1.5,3.1,2.2,4.7c0.9,2,1.9,4,2.8,6c0.1,0.2,0.2,0.4,0.4,0.5
		c0.9,0.8,2.3,0.5,2.8-0.6c0.5-1.2,1.1-2.3,1.6-3.5c0.9-2,1.8-3.9,2.8-5.8c0.3-0.6,0.6-1.1,0.8-1.7c0.4-1.2,0.4-2.5,0.1-3.8
		c-0.4-1.9-1.6-3.4-3.2-4.4c-1.6-1-3.4-1.3-5.3-0.9c-1.9,0.4-3.3,1.5-4.4,3C6.3,32.4,5.9,33.7,5.9,35.2z"/>
	<line class="st7" x1="9" y1="34.5" x2="17" y2="34.5"/>
	<path class="st6" d="M15.8,32.5h-2.6h-0.6h-2.5c-0.4,0-0.7,0.5-0.5,0.8c0.1,0.1,0.1,0.3,0.1,0.4V37c0,0.6,0.5,1.2,1.2,1.2h1.8h0.6
		h1.8c0.6,0,1.2-0.5,1.2-1.2v-3.2c0-0.2,0-0.3,0.1-0.4C16.5,33,16.2,32.5,15.8,32.5z"/>
	<g>
		<path class="st8" d="M13.7,31.6c0-0.4-0.3-0.7-0.7-0.7s-0.7,0.3-0.7,0.7"/>
		<line class="st9" x1="9.7" y1="31.7" x2="16.2" y2="31.7"/>
	</g>
</g>
</svg>
