<?xml version="1.0" encoding="utf-8"?>
<!-- Generator: Adobe Illustrator 22.0.1, SVG Export Plug-In . SVG Version: 6.00 Build 0)  -->
<svg version="1.1" id="Layer_1" xmlns="http://www.w3.org/2000/svg" xmlns:xlink="http://www.w3.org/1999/xlink" x="0px" y="0px"
	 viewBox="0 0 100 81" style="enable-background:new 0 0 100 81;" xml:space="preserve">
<style type="text/css">
	.st0{fill:#FFFFFF;}
</style>
<g>
	<g>
		<path class="st0" d="M50.5,0c-3.3,0.3-5.2,2.3-5.4,5.7c-0.1,1.2,0,2.4,0,3.6c-12.1,4.2-17.1,12.8-16.6,25.1c0.1,2.7-0.3,5.4,0.1,8
			c1.2,8.5-2.1,14.8-8.7,19.9c-1.7,1.3-3,3.1-4.5,4.7c0.2,0.3,0.4,0.6,0.6,0.9c11.5,0,23,0,34.5,0V0z"/>
		<path class="st0" d="M49.6,0c3.3,0.3,5.2,2.3,5.4,5.7c0.1,1.2,0,2.4,0,3.6c12.1,4.2,17.1,12.8,16.6,25.1c-0.1,2.7,0.3,5.4-0.1,8
			c-1.2,8.5,2.1,14.8,8.7,19.9c1.7,1.3,3,3.1,4.5,4.7c-0.2,0.3-0.4,0.6-0.6,0.9c-11.5,0-23,0-34.5,0"/>
	</g>
	<path class="st0" d="M50.1,80.8c4.7,0,8.6-3.8,8.6-8.6H41.5C41.5,77,45.3,80.8,50.1,80.8z"/>
</g>
</svg>
