<?xml version="1.0" encoding="utf-8"?>
<!-- Generator: Adobe Illustrator 22.0.1, SVG Export Plug-In . SVG Version: 6.00 Build 0)  -->
<svg version="1.1" id="Layer_1" xmlns="http://www.w3.org/2000/svg" xmlns:xlink="http://www.w3.org/1999/xlink" x="0px" y="0px"
	 viewBox="0 0 40 40" style="enable-background:new 0 0 40 40;" xml:space="preserve">
<g>
	<path d="M20.9,35.1c-4.4-0.3-8.8-0.5-13.2-1.1c-2.2-0.3-4.3-1-6.4-1.7C0.8,32.2,0,31.8,0,30.9c0-0.9,0.8-1.2,1.4-1.4
		c2.4-1.1,5-1.5,7.5-1.9c5.3-0.7,10.7-0.8,16.1-0.5c3.6,0.2,7.1,0.7,10.6,1.3c1.2,0.2,2.4,0.8,3.6,1.4c0.4,0.2,0.9,0.8,0.8,1.1
		c0,0.4-0.5,1.1-0.9,1.2c-1.9,0.7-3.9,1.5-5.9,1.8C29.2,34.4,25,34.7,20.9,35.1z"/>
	<path d="M5.7,35.3c9.5,1.4,19.1,1.6,28.6,0c0.1,0.1,0.1,0.1,0.2,0.2c-0.4,0.5-0.8,1-1.4,1.4c-1.8,1.3-3.8,1.9-5.8,2.3
		c-5.3,1-10.6,1.1-15.8-0.3c-1.6-0.4-3.1-1.2-4.6-2C6.4,36.6,6,36,5.6,35.5C5.6,35.4,5.7,35.4,5.7,35.3z"/>
	<path d="M21.9,22.4c0.4-0.7,0.7-1.2,0.9-1.6c1.4-2.7,1.1-5-0.9-7.1c-1-1-2.1-1.9-3-3c-0.7-0.9-1.3-1.9-1.7-3
		c-0.7-1.7-0.4-3.5,0.7-4.9c1-1.4,2.3-2.2,3.9-2.7c-0.4,0.7-0.9,1.3-1.2,2c-1,1.9-0.9,3.6,0.4,5.2c0.8,1,1.9,1.9,2.7,2.9
		c0.9,1.1,1.9,2.2,2.6,3.5c1,1.9,0.8,3.9-0.3,5.7C25,20.8,23.7,21.7,21.9,22.4z"/>
	<path d="M15.9,10.7c0,0.1,0,0.1,0,0.2c-1.9,2.6-0.9,4.1,0.8,5.8c0.8,0.7,1.5,1.5,2.1,2.4c1.4,2.4,0.1,5.5-2.5,6
		c0.2-0.5,0.5-0.9,0.7-1.4c0.6-1.4,0.4-2.7-0.5-3.8c-0.6-0.7-1.3-1.3-2-2c-0.9-1-1.7-2.1-1.6-3.6C13,12.6,14.1,11.3,15.9,10.7z"/>
</g>
</svg>
