<?xml version="1.0" encoding="utf-8"?>
<!-- Generator: Adobe Illustrator 22.0.1, SVG Export Plug-In . SVG Version: 6.00 Build 0)  -->
<svg version="1.1" id="Layer_1" xmlns="http://www.w3.org/2000/svg" xmlns:xlink="http://www.w3.org/1999/xlink" x="0px" y="0px"
	 viewBox="0 0 130 130" style="enable-background:new 0 0 130 130;" xml:space="preserve">
<style type="text/css">
	.st0{fill:#36930A;}
	.st1{fill:#FFFFFF;}
</style>
<g>
	<circle class="st0" cx="65" cy="65.2" r="64.5"/>
	<ellipse class="st1" cx="66" cy="79.7" rx="44.5" ry="8"/>
	<path class="st1" d="M34.3,88.5c21.1,2.8,42.3,3.1,63.4,0c0.1,0.1,0.2,0.3,0.4,0.4c-1,0.9-1.9,2-3,2.8c-3.9,2.5-8.3,3.7-12.8,4.4
		c-11.7,2-23.4,2.2-35-0.6c-3.5-0.8-6.9-2.4-10.2-3.9c-1.2-0.5-2-1.8-3-2.7C34.1,88.7,34.2,88.6,34.3,88.5z"/>
	<path class="st1" d="M70.3,63.2c0.9-1.4,1.5-2.3,2.1-3.2c3.1-5.3,2.5-9.9-2-14c-2.2-2-4.6-3.8-6.7-6c-1.6-1.7-2.9-3.7-3.8-5.8
		c-1.5-3.4-0.9-6.8,1.5-9.7c2.2-2.7,5-4.3,8.5-5.3c-1,1.5-1.9,2.6-2.6,3.9c-2.1,3.7-2,7,0.8,10.2c1.8,2.1,4.1,3.6,6,5.6
		c2.1,2.2,4.3,4.3,5.8,6.9c2.3,3.7,1.9,7.6-0.7,11.2C77.1,60,74.1,61.8,70.3,63.2z"/>
	<path class="st1" d="M56.9,40.2c0,0.2,0,0.3-0.1,0.3c-4.1,5.2-2.1,8.1,1.9,11.4c1.7,1.4,3.4,2.9,4.6,4.7c3.1,4.6,0.2,10.8-5.5,11.7
		c0.5-0.9,1.1-1.8,1.5-2.7c1.3-2.7,1-5.2-1.2-7.4c-1.4-1.4-3-2.6-4.4-4c-2-1.9-3.7-4.1-3.5-7.1C50.4,43.9,52.9,41.3,56.9,40.2z"/>
</g>
</svg>
