<svg width="40" height="24" viewBox="0 0 40 24" fill="none" xmlns="http://www.w3.org/2000/svg">
<g clip-path="url(#clip0)">
<rect width="40" height="24" fill="white"/>
<rect opacity="0.5" x="37" y="18" width="34" height="14" rx="7" transform="rotate(-180 37 18)" fill="white" stroke="black" stroke-opacity="0.52"/>
<g opacity="0.5" filter="url(#filter0_ddd)">
<path fill-rule="evenodd" clip-rule="evenodd" d="M27 0.999999C21.4772 0.999999 17 5.47715 17 11C17 16.5228 21.4772 21 27 21C32.5228 21 37 16.5228 37 11C37 5.47715 32.5228 1 27 0.999999Z" fill="#212121" fill-opacity="0.08"/>
</g>
<path opacity="0.5" fill-rule="evenodd" clip-rule="evenodd" d="M27 0.999999C21.4772 0.999999 17 5.47715 17 11C17 16.5228 21.4772 21 27 21C32.5228 21 37 16.5228 37 11C37 5.47715 32.5228 1 27 0.999999Z" fill="black" fill-opacity="0.6"/>
</g>
<defs>
<filter id="filter0_ddd" x="14" y="-1" width="26" height="26" filterUnits="userSpaceOnUse" color-interpolation-filters="sRGB">
<feFlood flood-opacity="0" result="BackgroundImageFix"/>
<feColorMatrix in="SourceAlpha" type="matrix" values="0 0 0 0 0 0 0 0 0 0 0 0 0 0 0 0 0 0 127 0"/>
<feOffset dy="1"/>
<feGaussianBlur stdDeviation="1.5"/>
<feColorMatrix type="matrix" values="0 0 0 0 0 0 0 0 0 0 0 0 0 0 0 0 0 0 0.2 0"/>
<feBlend mode="normal" in2="BackgroundImageFix" result="effect1_dropShadow"/>
<feColorMatrix in="SourceAlpha" type="matrix" values="0 0 0 0 0 0 0 0 0 0 0 0 0 0 0 0 0 0 127 0"/>
<feOffset dy="2"/>
<feGaussianBlur stdDeviation="0.5"/>
<feColorMatrix type="matrix" values="0 0 0 0 0 0 0 0 0 0 0 0 0 0 0 0 0 0 0.12 0"/>
<feBlend mode="normal" in2="effect1_dropShadow" result="effect2_dropShadow"/>
<feColorMatrix in="SourceAlpha" type="matrix" values="0 0 0 0 0 0 0 0 0 0 0 0 0 0 0 0 0 0 127 0"/>
<feOffset dy="1"/>
<feGaussianBlur stdDeviation="0.5"/>
<feColorMatrix type="matrix" values="0 0 0 0 0 0 0 0 0 0 0 0 0 0 0 0 0 0 0.14 0"/>
<feBlend mode="normal" in2="effect2_dropShadow" result="effect3_dropShadow"/>
<feBlend mode="normal" in="SourceGraphic" in2="effect3_dropShadow" result="shape"/>
</filter>
<clipPath id="clip0">
<rect width="40" height="24" fill="white"/>
</clipPath>
</defs>
</svg>
