<?xml version="1.0" encoding="utf-8"?>
<!-- Generator: Adobe Illustrator 22.0.1, SVG Export Plug-In . SVG Version: 6.00 Build 0)  -->
<svg version="1.1" xmlns="http://www.w3.org/2000/svg" xmlns:xlink="http://www.w3.org/1999/xlink" x="0px" y="0px"
	 viewBox="0 0 303.3 314.6" style="enable-background:new 0 0 303.3 314.6;" xml:space="preserve">
<style type="text/css">
	.st0{fill:none;stroke:#F75C06;stroke-miterlimit:10;}
	.st1{fill:#F75C06;}
	.st2{fill:none;stroke:#FFFFFF;stroke-miterlimit:10;}
	.st3{display:none;}
	.st4{display:inline;}
</style>
<g id="Layer_1">
	<g>
		<path class="st0" d="M16.8,117"/>
		<g>
			<path class="st1" d="M153.9,266.4c-1.6,0-3.1,0-4.7,0c0-0.4,0-0.8,0-1.1c0.3-18.4,0.6-36.7,0.9-55.1c0-2.5,0.1-5,0.1-7.5
				c0-1.4,0.1-1.6,1.3-1.6c1.1,0,1.3,0.2,1.3,1.6c0.2,11.4,0.4,22.7,0.5,34.1c0.2,9.5,0.3,19,0.5,28.4
				C153.9,265.5,153.9,265.9,153.9,266.4z"/>
			<path class="st1" d="M149.2,267.4c1.6,0,3.1,0,4.7,0c0.2,11.9,0.4,23.8,0.6,35.7c-2,0-3.9,0-5.9,0
				C148.8,291.2,149,279.3,149.2,267.4z"/>
			<path class="st1" d="M154.6,304c0,3.3,0,6.4,0,9.7c-2,0-4,0-6,0c0-3.2,0-6.4,0-9.7C150.6,304,152.5,304,154.6,304z"/>
		</g>
		<g>
			<path class="st1" d="M255.4,188.9c-0.5,1.5-0.9,2.9-1.4,4.5c-0.4-0.1-0.7-0.2-1.1-0.3c-17.4-5.7-34.8-11.5-52.2-17.2
				c-2.4-0.8-4.7-1.6-7.1-2.3c-1.4-0.4-1.5-0.6-1.1-1.8c0.3-1.1,0.5-1.1,1.9-0.8c10.9,3.2,21.7,6.4,32.6,9.6
				c9.1,2.7,18.1,5.3,27.2,8C254.6,188.7,254.9,188.8,255.4,188.9z"/>
			<path class="st1" d="M254.9,193.7c0.5-1.6,0.9-2.9,1.4-4.5c11.4,3.3,22.7,6.6,34.1,10c-0.6,1.9-1.1,3.7-1.7,5.7
				C277.4,201.2,266.2,197.5,254.9,193.7z"/>
			<path class="st1" d="M291.4,199.4c3.1,1,6.1,1.9,9.2,2.9c-0.6,1.9-1.2,3.8-1.8,5.8c-3-0.9-6.1-1.9-9.2-2.9
				C290.2,203.3,290.8,201.4,291.4,199.4z"/>
		</g>
		<ellipse class="st1" cx="217.8" cy="250.5" rx="43.1" ry="43.2"/>
		<ellipse class="st2" cx="217.8" cy="250.5" rx="27.9" ry="28"/>
		<ellipse class="st1" cx="258.6" cy="124.3" rx="43.1" ry="43.2"/>
		<ellipse class="st2" cx="258.6" cy="124.3" rx="27.9" ry="28"/>
		<ellipse class="st1" cx="151.9" cy="45.1" rx="43.1" ry="43.2"/>
		<ellipse class="st2" cx="151.9" cy="45.1" rx="27.9" ry="28"/>
		<ellipse class="st0" cx="44.7" cy="124.3" rx="43.1" ry="43.2"/>
		<ellipse class="st0" cx="44.7" cy="124.3" rx="27.9" ry="28"/>
		<ellipse class="st0" cx="85.3" cy="250.5" rx="43.1" ry="43.2"/>
		<ellipse class="st0" cx="85.3" cy="250.5" rx="27.9" ry="28"/>
		<path class="st1" d="M151.9,158.9"/>
		<path class="st0" d="M60,285.2"/>
		<path class="st1" d="M151.9,158.9"/>
	</g>
	<g>
		<path class="st1" d="M153.9,266.4c-1.6,0-3.1,0-4.7,0c0-0.4,0-0.8,0-1.1c0.3-18.4,0.6-36.7,0.9-55.1c0-2.5,0.1-5,0.1-7.5
			c0-1.4,0.1-1.6,1.3-1.6c1.1,0,1.3,0.2,1.3,1.6c0.2,11.4,0.4,22.7,0.5,34.1c0.2,9.5,0.3,19,0.5,28.4
			C153.9,265.5,153.9,265.9,153.9,266.4z"/>
		<path class="st1" d="M149.2,267.4c1.6,0,3.1,0,4.7,0c0.2,11.9,0.4,23.8,0.6,35.7c-2,0-3.9,0-5.9,0
			C148.8,291.2,149,279.3,149.2,267.4z"/>
		<path class="st1" d="M154.6,304c0,3.3,0,6.4,0,9.7c-2,0-4,0-6,0c0-3.2,0-6.4,0-9.7C150.6,304,152.5,304,154.6,304z"/>
	</g>
	<ellipse class="st1" cx="217.8" cy="250.5" rx="43.1" ry="43.2"/>
	<ellipse class="st2" cx="217.8" cy="250.5" rx="27.9" ry="28"/>
	<ellipse class="st1" cx="258.6" cy="124.3" rx="43.1" ry="43.2"/>
	<ellipse class="st2" cx="258.6" cy="124.3" rx="27.9" ry="28"/>
	<ellipse class="st1" cx="151.9" cy="45.1" rx="43.1" ry="43.2"/>
	<ellipse class="st2" cx="151.9" cy="45.1" rx="27.9" ry="28"/>
	<ellipse class="st0" cx="44.7" cy="124.3" rx="43.1" ry="43.2"/>
	<ellipse class="st0" cx="44.7" cy="124.3" rx="27.9" ry="28"/>
	<ellipse class="st0" cx="85.3" cy="250.5" rx="43.1" ry="43.2"/>
	<ellipse class="st0" cx="85.3" cy="250.5" rx="27.9" ry="28"/>
	<path class="st0" d="M16.8,117"/>
	<path class="st1" d="M151.9,158.9"/>
	<path class="st0" d="M60,285.2"/>
	<path class="st1" d="M151.9,158.9"/>
</g>
<g id="Layer_5" class="st3">
	<g class="st4">
		<g>
			<path class="st1" d="M215.1,69.2c1.3,0.9,2.5,1.8,3.8,2.8c-0.2,0.3-0.4,0.6-0.7,0.9c-11.1,14.6-22.1,29.3-33.2,43.9
				c-1.5,2-3,4-4.5,5.9c-0.9,1.1-1,1.2-2,0.5c-0.9-0.7-0.9-0.9-0.1-2c6.5-9.3,13.1-18.5,19.6-27.8c5.5-7.7,10.9-15.5,16.4-23.2
				C214.6,69.9,214.8,69.6,215.1,69.2z"/>
			<path class="st1" d="M219.5,71.3c-1.3-1-2.5-1.8-3.8-2.8c6.8-9.7,13.7-19.4,20.5-29.1c1.6,1.2,3.1,2.3,4.8,3.5
				C233.8,52.3,226.7,61.8,219.5,71.3z"/>
			<path class="st1" d="M236.8,38.5c1.9-2.6,3.8-5.2,5.7-7.8c1.6,1.2,3.2,2.4,4.8,3.6c-1.9,2.6-3.8,5.1-5.7,7.8
				C240,40.9,238.5,39.7,236.8,38.5z"/>
		</g>
		<g>
			<path class="st1" d="M84.9,70.6c1.3-0.9,2.5-1.8,3.8-2.8c0.2,0.3,0.5,0.6,0.7,0.9c10.6,15,21.2,29.9,31.9,44.9
				c1.4,2,2.9,4.1,4.3,6.1c0.8,1.2,0.8,1.4-0.1,2.1c-0.9,0.7-1.1,0.6-1.9-0.5c-6.9-9-13.7-18.1-20.6-27.1
				c-5.7-7.5-11.5-15.1-17.2-22.6C85.4,71.4,85.2,71.1,84.9,70.6z"/>
			<path class="st1" d="M88.2,67.1c-1.3,1-2.5,1.8-3.8,2.8C77.2,60.4,70,51,62.8,41.5c1.6-1.2,3.1-2.3,4.8-3.5
				C74.4,47.7,81.3,57.4,88.2,67.1z"/>
			<path class="st1" d="M62.2,40.8c-1.9-2.6-3.8-5.2-5.7-7.8c1.6-1.2,3.2-2.4,4.8-3.6c1.9,2.6,3.8,5.1,5.7,7.8
				C65.4,38.4,63.8,39.5,62.2,40.8z"/>
		</g>
		<ellipse class="st0" cx="217.8" cy="250.5" rx="43.1" ry="43.2"/>
		<ellipse class="st0" cx="217.8" cy="250.5" rx="27.9" ry="28"/>
		<ellipse class="st0" cx="258.6" cy="124.3" rx="43.1" ry="43.2"/>
		<ellipse class="st0" cx="258.6" cy="124.3" rx="27.9" ry="28"/>
		<ellipse class="st1" cx="151.9" cy="45.1" rx="43.1" ry="43.2"/>
		<ellipse class="st2" cx="151.9" cy="45.1" rx="27.9" ry="28"/>
		<ellipse class="st0" cx="44.7" cy="124.3" rx="43.1" ry="43.2"/>
		<ellipse class="st0" cx="44.7" cy="124.3" rx="27.9" ry="28"/>
		<ellipse class="st0" cx="85.3" cy="250.5" rx="43.1" ry="43.2"/>
		<ellipse class="st0" cx="85.3" cy="250.5" rx="27.9" ry="28"/>
		<path class="st0" d="M16.8,117"/>
		<path class="st1" d="M151.9,158.9"/>
		<path class="st0" d="M60,285.2"/>
		<path class="st1" d="M151.9,158.9"/>
	</g>
</g>
<g id="Layer_4" class="st3">
	<g class="st4">
		<g>
			<path class="st1" d="M215.1,69.2c1.3,0.9,2.5,1.8,3.8,2.8c-0.2,0.3-0.4,0.6-0.7,0.9c-11.1,14.6-22.1,29.3-33.2,43.9
				c-1.5,2-3,4-4.5,5.9c-0.9,1.1-1,1.2-2,0.5c-0.9-0.7-0.9-0.9-0.1-2c6.5-9.3,13.1-18.5,19.6-27.8c5.5-7.7,10.9-15.5,16.4-23.2
				C214.6,69.9,214.8,69.6,215.1,69.2z"/>
			<path class="st1" d="M219.5,71.3c-1.3-1-2.5-1.8-3.8-2.8c6.8-9.7,13.7-19.4,20.5-29.1c1.6,1.2,3.1,2.3,4.8,3.5
				C233.8,52.3,226.7,61.8,219.5,71.3z"/>
			<path class="st1" d="M236.8,38.5c1.9-2.6,3.8-5.2,5.7-7.8c1.6,1.2,3.2,2.4,4.8,3.6c-1.9,2.6-3.8,5.1-5.7,7.8
				C240,40.9,238.5,39.7,236.8,38.5z"/>
		</g>
		<g>
			<path class="st1" d="M255.4,188.9c-0.5,1.5-0.9,2.9-1.4,4.5c-0.4-0.1-0.7-0.2-1.1-0.3c-17.4-5.7-34.8-11.5-52.2-17.2
				c-2.4-0.8-4.7-1.6-7.1-2.3c-1.4-0.4-1.5-0.6-1.1-1.8c0.3-1.1,0.5-1.1,1.9-0.8c10.9,3.2,21.7,6.4,32.6,9.6
				c9.1,2.7,18.1,5.3,27.2,8C254.6,188.7,254.9,188.8,255.4,188.9z"/>
			<path class="st1" d="M254.9,193.7c0.5-1.6,0.9-2.9,1.4-4.5c11.4,3.3,22.7,6.6,34.1,10c-0.6,1.9-1.1,3.7-1.7,5.7
				C277.4,201.2,266.2,197.5,254.9,193.7z"/>
			<path class="st1" d="M291.4,199.4c3.1,1,6.1,1.9,9.2,2.9c-0.6,1.9-1.2,3.8-1.8,5.8c-3-0.9-6.1-1.9-9.2-2.9
				C290.2,203.3,290.8,201.4,291.4,199.4z"/>
		</g>
		<ellipse class="st0" cx="217.8" cy="250.5" rx="43.1" ry="43.2"/>
		<ellipse class="st0" cx="217.8" cy="250.5" rx="27.9" ry="28"/>
		<ellipse class="st1" cx="258.6" cy="124.3" rx="43.1" ry="43.2"/>
		<ellipse class="st2" cx="258.6" cy="124.3" rx="27.9" ry="28"/>
		<ellipse class="st1" cx="151.9" cy="45.1" rx="43.1" ry="43.2"/>
		<ellipse class="st2" cx="151.9" cy="45.1" rx="27.9" ry="28"/>
		<ellipse class="st0" cx="44.7" cy="124.3" rx="43.1" ry="43.2"/>
		<ellipse class="st0" cx="44.7" cy="124.3" rx="27.9" ry="28"/>
		<ellipse class="st0" cx="85.3" cy="250.5" rx="43.1" ry="43.2"/>
		<ellipse class="st0" cx="85.3" cy="250.5" rx="27.9" ry="28"/>
		<path class="st0" d="M16.8,117"/>
		<path class="st1" d="M151.9,158.9"/>
		<path class="st0" d="M60,285.2"/>
		<path class="st1" d="M151.9,158.9"/>
	</g>
</g>
<g id="Layer_3" class="st3">
	<g class="st4">
		<path class="st1" d="M48.8,193.9c-0.5-1.5-1-2.9-1.5-4.5c0.4-0.1,0.7-0.2,1.1-0.4c17.5-5.5,35-10.9,52.5-16.4
			c2.4-0.7,4.7-1.5,7.1-2.2c1.4-0.4,1.5-0.4,1.9,0.8c0.3,1.1,0.2,1.3-1.1,1.7c-10.7,3.7-21.4,7.4-32.1,11.2
			c-8.9,3.1-17.8,6.2-26.8,9.3C49.6,193.6,49.2,193.7,48.8,193.9z"/>
		<path class="st1" d="M46.4,189.7c0.5,1.5,1,2.9,1.5,4.5c-11.2,3.9-22.4,7.8-33.6,11.7c-0.6-1.9-1.2-3.7-1.8-5.6
			C23.7,196.8,35,193.2,46.4,189.7z"/>
		<path class="st1" d="M13.3,206.3c-3.1,1-6.1,2-9.1,3c-0.6-1.9-1.2-3.8-1.9-5.7c3-1,6-2,9.1-3C12.1,202.5,12.7,204.3,13.3,206.3z"
			/>
		<g>
			<path class="st1" d="M84.9,70.6c1.3-0.9,2.5-1.8,3.8-2.8c0.2,0.3,0.5,0.6,0.7,0.9c10.6,15,21.2,29.9,31.9,44.9
				c1.4,2,2.9,4.1,4.3,6.1c0.8,1.2,0.8,1.4-0.1,2.1c-0.9,0.7-1.1,0.6-1.9-0.5c-6.9-9-13.7-18.1-20.6-27.1
				c-5.7-7.5-11.5-15.1-17.2-22.6C85.4,71.4,85.2,71.1,84.9,70.6z"/>
			<path class="st1" d="M88.2,67.1c-1.3,1-2.5,1.8-3.8,2.8C77.2,60.4,70,51,62.8,41.5c1.6-1.2,3.1-2.3,4.8-3.5
				C74.4,47.7,81.3,57.4,88.2,67.1z"/>
			<path class="st1" d="M62.2,40.8c-1.9-2.6-3.8-5.2-5.7-7.8c1.6-1.2,3.2-2.4,4.8-3.6c1.9,2.6,3.8,5.1,5.7,7.8
				C65.4,38.4,63.8,39.5,62.2,40.8z"/>
		</g>
		<ellipse class="st1" cx="217.8" cy="250.5" rx="43.1" ry="43.2"/>
		<ellipse class="st2" cx="217.8" cy="250.5" rx="27.9" ry="28"/>
		<ellipse class="st1" cx="258.6" cy="124.3" rx="43.1" ry="43.2"/>
		<ellipse class="st2" cx="258.6" cy="124.3" rx="27.9" ry="28"/>
		<ellipse class="st1" cx="151.9" cy="45.1" rx="43.1" ry="43.2"/>
		<ellipse class="st2" cx="151.9" cy="45.1" rx="27.9" ry="28"/>
		<ellipse class="st1" cx="44.7" cy="124.3" rx="43.1" ry="43.2"/>
		<ellipse class="st2" cx="44.7" cy="124.3" rx="27.9" ry="28"/>
		<ellipse class="st1" cx="85.3" cy="250.5" rx="43.1" ry="43.2"/>
		<ellipse class="st2" cx="85.3" cy="250.5" rx="27.9" ry="28"/>
		<path class="st1" d="M16.8,117"/>
		<path class="st1" d="M151.9,158.9"/>
		<path class="st1" d="M60,285.2"/>
		<path class="st1" d="M151.9,158.9"/>
	</g>
</g>
<g id="Layer_2" class="st3">
	<g class="st4">
		<g>
			<path class="st1" d="M215.1,69.2c1.3,0.9,2.5,1.8,3.8,2.8c-0.2,0.3-0.4,0.6-0.7,0.9c-11.1,14.6-22.1,29.3-33.2,43.9
				c-1.5,2-3,4-4.5,5.9c-0.9,1.1-1,1.2-2,0.5c-0.9-0.7-0.9-0.9-0.1-2c6.5-9.3,13.1-18.5,19.6-27.8c5.5-7.7,10.9-15.5,16.4-23.2
				C214.6,69.9,214.8,69.6,215.1,69.2z"/>
			<path class="st1" d="M219.5,71.3c-1.3-1-2.5-1.8-3.8-2.8c6.8-9.7,13.7-19.4,20.5-29.1c1.6,1.2,3.1,2.3,4.8,3.5
				C233.8,52.3,226.7,61.8,219.5,71.3z"/>
			<path class="st1" d="M236.8,38.5c1.9-2.6,3.8-5.2,5.7-7.8c1.6,1.2,3.2,2.4,4.8,3.6c-1.9,2.6-3.8,5.1-5.7,7.8
				C240,40.9,238.5,39.7,236.8,38.5z"/>
		</g>
		<g>
			<path class="st1" d="M255.4,188.9c-0.5,1.5-0.9,2.9-1.4,4.5c-0.4-0.1-0.7-0.2-1.1-0.3c-17.4-5.7-34.8-11.5-52.2-17.2
				c-2.4-0.8-4.7-1.6-7.1-2.3c-1.4-0.4-1.5-0.6-1.1-1.8c0.3-1.1,0.5-1.1,1.9-0.8c10.9,3.2,21.7,6.4,32.6,9.6
				c9.1,2.7,18.1,5.3,27.2,8C254.6,188.7,254.9,188.8,255.4,188.9z"/>
			<path class="st1" d="M254.9,193.7c0.5-1.6,0.9-2.9,1.4-4.5c11.4,3.3,22.7,6.6,34.1,10c-0.6,1.9-1.1,3.7-1.7,5.7
				C277.4,201.2,266.2,197.5,254.9,193.7z"/>
			<path class="st1" d="M291.4,199.4c3.1,1,6.1,1.9,9.2,2.9c-0.6,1.9-1.2,3.8-1.8,5.8c-3-0.9-6.1-1.9-9.2-2.9
				C290.2,203.3,290.8,201.4,291.4,199.4z"/>
		</g>
		<ellipse class="st0" cx="217.8" cy="250.5" rx="43.1" ry="43.2"/>
		<ellipse class="st0" cx="217.8" cy="250.5" rx="27.9" ry="28"/>
		<ellipse class="st1" cx="258.6" cy="124.3" rx="43.1" ry="43.2"/>
		<ellipse class="st2" cx="258.6" cy="124.3" rx="27.9" ry="28"/>
		<ellipse class="st1" cx="151.9" cy="45.1" rx="43.1" ry="43.2"/>
		<ellipse class="st2" cx="151.9" cy="45.1" rx="27.9" ry="28"/>
		<ellipse class="st0" cx="44.7" cy="124.3" rx="43.1" ry="43.2"/>
		<ellipse class="st0" cx="44.7" cy="124.3" rx="27.9" ry="28"/>
		<ellipse class="st0" cx="85.3" cy="250.5" rx="43.1" ry="43.2"/>
		<ellipse class="st0" cx="85.3" cy="250.5" rx="27.9" ry="28"/>
		<path class="st0" d="M16.8,117"/>
		<path class="st1" d="M151.9,158.9"/>
		<path class="st0" d="M60,285.2"/>
		<path class="st1" d="M151.9,158.9"/>
	</g>
</g>
</svg>
